<?xml version="1.0" encoding="UTF-8"?>
<svg version="1.1" xmlns="http://www.w3.org/2000/svg" width="500" height="500">
<path d="M0 0 C165 0 330 0 500 0 C500 165 500 330 500 500 C335 500 170 500 0 500 C0 335 0 170 0 0 Z " fill="#000000" transform="translate(0,0)"/>
<path d="M0 0 C165 0 330 0 500 0 C500 165 500 330 500 500 C335 500 170 500 0 500 C0 335 0 170 0 0 Z M190.625 26.875 C189.72910156 27.12765625 188.83320313 27.3803125 187.91015625 27.640625 C179.47385723 30.06471092 171.18821375 32.8401542 163 36 C161.83597656 36.44859375 160.67195312 36.8971875 159.47265625 37.359375 C132.91496769 48.18931443 109.67969841 65.3636249 89 85 C88.46584473 85.50547363 87.93168945 86.01094727 87.38134766 86.53173828 C52.39270914 119.87752245 30.97257572 164.91230379 22 212 C21.80277344 213.02923584 21.60554688 214.05847168 21.40234375 215.11889648 C19.73384781 225.07736181 19.6950381 234.95656387 19.73925781 245.03100586 C19.74996891 247.92908712 19.73931093 250.82654695 19.7265625 253.72460938 C19.71839169 264.34808549 20.2654601 274.50185011 22 285 C22.24091253 286.74070197 22.4806237 288.48157093 22.71875 290.22265625 C27.69486279 322.48011807 41.04161756 354.4983175 60 381 C60.75796875 382.06863281 61.5159375 383.13726562 62.296875 384.23828125 C64.47175014 387.21138184 66.70948639 390.11521224 69 393 C69.77085938 393.97582031 70.54171875 394.95164062 71.3359375 395.95703125 C84.26432886 411.94325938 99.13355235 426.24872086 116 438 C116.98371582 438.69416016 116.98371582 438.69416016 117.98730469 439.40234375 C143.65713059 457.3369277 172.34775109 469.78416091 203 476 C203.75313477 476.15694336 204.50626953 476.31388672 205.28222656 476.47558594 C218.78953911 479.27082418 231.8942002 480.18669677 245.64916992 480.18530273 C248.03387739 480.18747394 250.41810915 480.20565056 252.80273438 480.22460938 C314.73441939 480.4558259 371.54508623 454.22086729 415.1875 411.125 C422.43607226 403.85289834 429.0034915 396.3288989 435 388 C436.16208984 386.40285156 436.16208984 386.40285156 437.34765625 384.7734375 C451.09726591 365.38719541 461.62852839 344.52430613 469.30664062 322.02783203 C469.90006417 320.29227712 470.51790998 318.56510557 471.140625 316.83984375 C476.93010707 299.7700613 480.08864947 280.78634393 480.23828125 262.78125 C480.25283607 261.32973289 480.25283607 261.32973289 480.26768494 259.84889221 C480.29253827 256.7325524 480.30519912 253.6164289 480.3125 250.5 C480.31511841 249.44054169 480.31773682 248.38108337 480.32043457 247.28952026 C480.3245542 231.77750107 479.66985446 217.13159634 476 202 C475.70485975 200.61271362 475.41302378 199.22471883 475.125 197.8359375 C466.01583467 157.25135269 444.86607615 119.745525 416 90 C415.48324707 89.45746582 414.96649414 88.91493164 414.43408203 88.35595703 C407.01017756 80.56645554 399.22886722 73.63924993 390.60644531 67.20068359 C389.16292719 66.12177445 387.73289382 65.02487916 386.3046875 63.92578125 C358.58516846 43.0301805 326.05627665 29.29825838 292 23 C291.35921509 22.87505157 290.71843018 22.75010315 290.05822754 22.62136841 C277.45321835 20.1982896 265.14569441 19.49987792 252.32226562 19.55395508 C249.26623767 19.56245484 246.21209482 19.53358053 243.15625 19.50195312 C225.26412597 19.43807383 207.83007412 21.87907309 190.625 26.875 Z " fill="#FEFEFE" transform="translate(0,0)"/>
<path d="M0 0 C31.75040961 -0.45357728 31.75040961 -0.45357728 42.2265625 9.01171875 C49.23436374 16.3125735 51.1133001 22.42244607 51.375 32.4375 C51.16063573 42.161843 49.36095657 50.29502483 42.5390625 57.5546875 C33.35342401 66.22282523 22.17246692 67.16778722 10.125 67.0625 C6.78375 67.041875 3.4425 67.02125 0 67 C0 58.09 0 49.18 0 40 C4.29 40 8.58 40 13 40 C13 44.95 13 49.9 13 55 C24.93717213 53.31026922 24.93717213 53.31026922 34.234375 46.421875 C37.91714855 40.41844962 37.83523528 33.82676997 37 27 C35.76538471 22.60948607 33.87596677 19.85291502 30.625 16.6875 C24.95820478 14.04950912 19.13437581 13.1574294 13 12 C13 16.95 13 21.9 13 27 C8.71 27 4.42 27 0 27 C0 18.09 0 9.18 0 0 Z " fill="#FA3427" transform="translate(131,219)"/>
<path d="M0 0 C11.75606721 0.50025818 20.23490626 4.20548734 29 12 C29.84949219 12.75539063 30.69898438 13.51078125 31.57421875 14.2890625 C37.54205315 19.90899624 41.65274196 25.52114292 45 33 C45.33902344 33.73863281 45.67804688 34.47726562 46.02734375 35.23828125 C49.36412366 43.64942692 49.30061395 53.68644025 46.05859375 62.125 C43.94835392 65.86269417 40.81891065 68.09054468 37 70 C30.88945765 70.50921186 27.86202669 70.08852244 23 66 C16.51052327 59.12878935 14.4457811 51.7408573 13.5 42.5625 C11.80154613 28.60497835 10.15042522 15.80647311 2 4 C1.31060334 2.67827595 0.63619935 1.34813672 0 0 Z " fill="#42B9CB" transform="translate(311,301)"/>
<path d="M0 0 C10.56 0 21.12 0 32 0 C32 3.96 32 7.92 32 12 C25.73 12 19.46 12 13 12 C13 16.95 13 21.9 13 27 C21.91 27 30.82 27 40 27 C40 31.29 40 35.58 40 40 C31.09 40 22.18 40 13 40 C13 44.95 13 49.9 13 55 C19.27 55 25.54 55 32 55 C32 58.96 32 62.92 32 67 C21.44 67 10.88 67 0 67 C0 44.89 0 22.78 0 0 Z " fill="#F83326" transform="translate(146,148)"/>
<path d="M0 0 C4.29 0 8.58 0 13 0 C13.07459782 6.36797575 13.12881305 12.73569265 13.16479492 19.10400391 C13.17980768 21.26680945 13.20022416 23.42958493 13.22631836 25.59228516 C13.26303366 28.71524511 13.27980196 31.8377998 13.29296875 34.9609375 C13.30845261 35.91551849 13.32393646 36.87009949 13.33988953 37.85360718 C13.34174034 45.36978597 12.43079393 53.17316521 7.8125 59.375 C0.94301221 65.78652193 -6.43558094 67.35684959 -15.6328125 67.28515625 C-22.27662378 66.7225133 -28.34086442 63.79225374 -33 59 C-36.73552934 53.29245225 -37.56148825 48.4060098 -37.390625 41.6875 C-37.38496521 40.83317383 -37.37930542 39.97884766 -37.37347412 39.09863281 C-37.3512739 36.39849247 -37.3011112 33.69973193 -37.25 31 C-37.22991374 29.15757139 -37.21166671 27.31512176 -37.1953125 25.47265625 C-37.15146318 20.98124785 -37.08255252 16.49085698 -37 12 C-33.04 12 -29.08 12 -25 12 C-24.98541748 13.00377686 -24.97083496 14.00755371 -24.95581055 15.04174805 C-24.89767948 18.7787575 -24.82044835 22.51517369 -24.73754883 26.25170898 C-24.7043689 27.86651963 -24.67631542 29.48144431 -24.65356445 31.09643555 C-24.61988975 33.42285592 -24.56757037 35.74823783 -24.51171875 38.07421875 C-24.50532883 38.79212082 -24.4989389 39.51002289 -24.49235535 40.24967957 C-24.36410249 44.65774765 -23.67202759 47.47347644 -21 51 C-17.53986159 53.86697183 -14.50070551 54.52985627 -10 54.359375 C-6.67182126 53.76134288 -4.5293129 52.15916955 -2 50 C-1.0534586 47.16037579 -0.85005776 45.29593471 -0.79467773 42.3449707 C-0.77473251 41.40422195 -0.75478729 40.46347321 -0.73423767 39.49421692 C-0.71752518 38.48163315 -0.70081268 37.46904938 -0.68359375 36.42578125 C-0.66281265 35.38681198 -0.64203156 34.34784271 -0.62062073 33.27738953 C-0.55519344 29.95582747 -0.49627179 26.63418584 -0.4375 23.3125 C-0.39430831 21.0618407 -0.35069381 18.81118948 -0.30664062 16.56054688 C-0.19951897 11.04044631 -0.09823211 5.52026563 0 0 Z " fill="#F93327" transform="translate(222,219)"/>
<path d="M0 0 C4.29 0 8.58 0 13 0 C13 22.11 13 44.22 13 67 C8.71 67 4.42 67 0 67 C0 63.04 0 59.08 0 55 C-8.25 55 -16.5 55 -25 55 C-25 58.96 -25 62.92 -25 67 C-29.29 67 -33.58 67 -38 67 C-38 58.75 -38 50.5 -38 42 C-25.46 42 -12.92 42 0 42 C0 28.14 0 14.28 0 0 Z " fill="#F73326" transform="translate(131,148)"/>
<path d="M0 0 C2.72566502 2.37170466 3.8383342 4.59615657 5.11303711 7.95532227 C5.50031479 8.96389786 5.88759247 9.97247345 6.28660583 11.01161194 C6.69604935 12.10219406 7.10549286 13.19277618 7.52734375 14.31640625 C7.95753311 15.44263901 8.38772247 16.56887177 8.83094788 17.72923279 C10.20738285 21.33748761 11.57268389 24.94983634 12.9375 28.5625 C14.30122767 32.14918818 15.66718938 35.73501983 17.03334045 39.32078552 C17.88233407 41.55170035 18.72947471 43.78332154 19.57444763 46.01576233 C21.73766578 51.72613709 23.95107062 57.40625232 26.28883362 63.04771423 C27 65 27 65 27 67 C22.71 67 18.42 67 14 67 C10.88576792 59.35727449 8.02439956 51.64693362 5.25 43.875 C4.83878906 42.72773438 4.42757812 41.58046875 4.00390625 40.3984375 C3.00096777 37.59953942 1.99970001 34.80005605 1 32 C-1.1458796 35.2188194 -2.3190281 38.41768131 -3.56640625 42.0390625 C-3.80536118 42.72052338 -4.0443161 43.40198425 -4.29051208 44.10409546 C-5.05182466 46.27636238 -5.80762184 48.45048946 -6.5625 50.625 C-7.32141155 52.80648081 -8.08154637 54.98750219 -8.84519958 57.16732788 C-9.31997932 58.52294883 -9.79194903 59.87955774 -10.26087952 61.23721313 C-11.88769245 65.88769245 -11.88769245 65.88769245 -13 67 C-15.18639453 67.07258946 -17.37500389 67.08373783 -19.5625 67.0625 C-20.76003906 67.05347656 -21.95757812 67.04445313 -23.19140625 67.03515625 C-24.58166016 67.01775391 -24.58166016 67.01775391 -26 67 C-24.00340918 59.94127714 -21.61076956 53.13027966 -18.91015625 46.3125 C-18.52435898 45.32934814 -18.13856171 44.34619629 -17.74107361 43.33325195 C-16.51862051 40.22068273 -15.29063169 37.11033234 -14.0625 34 C-13.24247815 31.91420415 -12.42281368 29.82826776 -11.60351562 27.7421875 C-9.75074771 23.02866173 -7.89728578 18.31543082 -6.0317688 13.60693359 C-5.31200582 11.78833402 -4.59605446 9.96822326 -3.88302612 8.14697266 C-3.52516022 7.23866699 -3.16729431 6.33036133 -2.79858398 5.39453125 C-2.31626564 4.16440308 -2.31626564 4.16440308 -1.82420349 2.90942383 C-1 1 -1 1 0 0 Z " fill="#F83327" transform="translate(214,148)"/>
<path d="M0 0 C12.95109612 -1.51770658 12.95109612 -1.51770658 17.53125 1.875 C19.58641969 4.48473929 21.29937188 7.14758284 23 10 C24.3248357 11.83948342 25.65781497 13.67313705 27 15.5 C30 19.73214286 30 19.73214286 30 22 C33.47330306 18.72276932 33.47330306 18.72276932 36.1875 14.84375 C38 13 38 13 41.57421875 12.609375 C42.94585748 12.6358801 44.31721938 12.6834691 45.6875 12.75 C46.7403418 12.77707031 46.7403418 12.77707031 47.81445312 12.8046875 C49.54355436 12.85173787 51.27195205 12.92348127 53 13 C51.66989397 15.78668623 50.1874526 18.31553997 48.43359375 20.85546875 C47.94826172 21.55994141 47.46292969 22.26441406 46.96289062 22.99023438 C46.45951172 23.71533203 45.95613281 24.44042969 45.4375 25.1875 C44.93025391 25.92419922 44.42300781 26.66089844 43.90039062 27.41992188 C40.1460891 32.8539109 40.1460891 32.8539109 39 34 C38.84019563 36.44608998 38.74070553 38.86731058 38.68359375 41.31640625 C38.66281265 42.04746078 38.64203156 42.77851532 38.62062073 43.53172302 C38.55504976 45.87521656 38.49620568 48.21882539 38.4375 50.5625 C38.39432192 52.14779855 38.35070787 53.73308529 38.30664062 55.31835938 C38.1993608 59.21212037 38.0981151 63.10599772 38 67 C33.71 67 29.42 67 25 67 C25.07863281 64.89882813 25.15726562 62.79765625 25.23828125 60.6328125 C25.61789141 43.80496597 24.83400295 31.73460293 12.78076172 18.95263672 C9.79735216 15.68127537 7.2706824 12.08918701 4.6875 8.5 C4.21393066 7.86956787 3.74036133 7.23913574 3.25244141 6.58959961 C0 2.23249798 0 2.23249798 0 0 Z " fill="#F83327" transform="translate(279,219)"/>
<path d="M0 0 C5.10440764 -1.20726654 10.07167287 -2.11677971 15 0 C20.02243636 4.74910649 23.39048676 11.02365165 26.70410156 17.02880859 C28.00297521 19.28404193 28.00297521 19.28404193 31 21 C31.2475 20.4225 31.495 19.845 31.75 19.25 C33.28096653 16.49426025 34.44857948 14.89486605 37 13 C42.41385419 12.27388149 47.57137263 12.53579433 53 13 C52.18930086 14.23035517 51.37624815 15.45915929 50.5625 16.6875 C50.04099365 17.48969971 49.5194873 18.29189941 48.98217773 19.1184082 C47 22 47 22 44.72070312 24.77148438 C37.6702865 33.69892236 36.71161338 40.64814842 36.9375 51.8125 C36.93441599 53.29493597 36.92727681 54.77736922 36.91601562 56.25976562 C36.89743709 59.8410281 36.9331019 63.41919133 37 67 C32.71 67 28.42 67 24 67 C24.06703125 64.88722656 24.1340625 62.77445313 24.203125 60.59765625 C24.49658173 44.48065632 24.23755006 32.1586131 12.68261719 19.85009766 C9.76869519 16.64613641 7.29064463 13.12627591 4.75 9.625 C4.27256348 8.99907959 3.79512695 8.37315918 3.30322266 7.72827148 C0 3.34089226 0 3.34089226 0 0 Z " fill="#FA3427" transform="translate(294,148)"/>
<path d="M0 0 C3.96 0 7.92 0 12 0 C15.3383568 7.2203451 18.09434667 14.56698335 20.75 22.0625 C21.16121094 23.21427734 21.57242187 24.36605469 21.99609375 25.55273438 C23.00049776 28.36740143 24.00172189 31.18315573 25 34 C26.66666488 31.50000268 27.66929534 29.53017327 28.7265625 26.76953125 C29.0359375 25.96708984 29.3453125 25.16464844 29.6640625 24.33789062 C29.98117187 23.50451172 30.29828125 22.67113281 30.625 21.8125 C31.11226563 20.5450293 31.11226563 20.5450293 31.609375 19.25195312 C32.40952023 17.16922216 33.20519318 15.08477403 34 13 C38.29 13 42.58 13 47 13 C42.80917409 25.13046896 38.31054205 37.11521879 33.625 49.0625 C32.97761121 50.71930206 32.3304747 52.37620272 31.68359375 54.03320312 C30.12528492 58.02327149 28.56362714 62.01201294 27 66 C26.01 66 25.02 66 24 66 C21.31346683 58.96716525 18.62719754 51.93422975 15.94125652 44.90116882 C14.69379392 41.63474744 13.44624359 38.36835962 12.19848633 35.10205078 C10.7609624 31.33896953 9.32383167 27.57573823 7.88671875 23.8125 C7.22092049 22.06984863 7.22092049 22.06984863 6.54167175 20.29199219 C5.7205406 18.14143167 4.90097906 15.99027086 4.08334351 13.83837891 C3.40712839 12.06668349 2.72391636 10.29762391 2.03018188 8.53271484 C0.86302548 5.53521884 0 3.24829043 0 0 Z " fill="#F93327" transform="translate(244,148)"/>
<path d="M0 0 C7.34588907 3.74583075 13.2350492 8.33223478 16.8828125 15.92578125 C18.1740392 19.95616362 17.91202384 23.40677569 16.6875 27.4375 C14.04535515 30.67412745 12.56772846 31.98652269 8.5703125 32.9453125 C3.05807894 33.38400237 -0.18931353 31.77693911 -4.34765625 28.27734375 C-7.07164971 25.7266461 -9.71609852 23.11029821 -12.32421875 20.44140625 C-21.37302977 11.32148473 -31.58616848 3.72833938 -43.3125 -1.5625 C-34.36545696 -11.36164238 -10.23803585 -4.92508885 0 0 Z " fill="#46BECF" transform="translate(374.3125,289.5625)"/>
<path d="M0 0 C9.69836855 1.37097356 17.88802552 10.87975762 24 18 C26.36916915 21.5288675 28.26511931 25.12371542 30 29 C30.50853516 30.10794922 30.50853516 30.10794922 31.02734375 31.23828125 C33.79672006 38.21915149 34.38318684 46.85043947 32 54 C30.35 54 28.7 54 27 54 C26.896875 53.360625 26.79375 52.72125 26.6875 52.0625 C26.460625 51.381875 26.23375 50.70125 26 50 C24.515 49.505 24.515 49.505 23 49 C23 48.34 23 47.68 23 47 C21.68 47 20.36 47 19 47 C19 45.35 19 43.7 19 42 C18.34 42 17.68 42 17 42 C16.74605469 41.41992188 16.49210937 40.83984375 16.23046875 40.2421875 C13.27496399 32.24664564 13.27496399 32.24664564 8.375 25.63671875 C7 24 7 24 7.06640625 21.73046875 C7.31197266 20.47169922 7.31197266 20.47169922 7.5625 19.1875 C8.13101149 15.12501163 8.17751995 14.31495476 6.0625 10.5625 C5.381875 9.716875 4.70125 8.87125 4 8 C4 7.01 4 6.02 4 5 C3.34 5 2.68 5 2 5 C1.34 3.35 0.68 1.7 0 0 Z " fill="#83EBF4" transform="translate(326,305)"/>
<path d="M0 0 C4.29 0 8.58 0 13 0 C13 14.19 13 28.38 13 43 C8.71 43 4.42 43 0 43 C0 28.81 0 14.62 0 0 Z " fill="#F33226" transform="translate(251,243)"/>
<path d="M0 0 C13.2 0 26.4 0 40 0 C40 3.96 40 7.92 40 12 C26.8 12 13.6 12 0 12 C0 8.04 0 4.08 0 0 Z " fill="#F33226" transform="translate(237,219)"/>
<path d="M0 0 C2.375 2.3125 2.375 2.3125 3.5 4.8125 C3.375 7.3125 3.375 7.3125 1.75 9.5625 C-2.78442205 12.90365309 -7.57180774 12.34432737 -12.97583008 12.19726562 C-21.89662631 11.96488371 -29.52202288 12.0617579 -37.625 16.3125 C-36.6861883 10.1411937 -30.95812769 6.04738982 -26.1875 2.5 C-17.72747542 -1.42049919 -8.88594701 -4.13656154 0 0 Z " fill="#59D3E1" transform="translate(365.625,258.6875)"/>
<path d="M0 0 C7.0988446 2.25149922 14.40801808 7.05142582 18.09375 13.6640625 C18.16192481 16.66375405 17.61203637 17.87464411 15.99609375 20.3359375 C12.99065318 22.4341917 10.03471204 21.66218272 6.59375 21.1640625 C5.91699219 21.09703125 5.24023438 21.03 4.54296875 20.9609375 C1.01681196 20.48800128 -0.59147855 20.04878316 -2.875 17.2578125 C-3.90625 14.6640625 -3.90625 14.6640625 -3.90625 11.6640625 C-4.545625 11.3546875 -5.185 11.0453125 -5.84375 10.7265625 C-7.90625 9.6640625 -7.90625 9.6640625 -8.90625 8.6640625 C-8.65625 5.2265625 -8.65625 5.2265625 -7.90625 1.6640625 C-4.75126822 -0.43925869 -3.63856011 -0.66295799 0 0 Z " fill="#71E5EF" transform="translate(370.90625,288.3359375)"/>
<path d="M0 0 C4.29 0 8.58 0 13 0 C13 9.57 13 19.14 13 29 C8.71 29 4.42 29 0 29 C0 19.43 0 9.86 0 0 Z " fill="#F43226" transform="translate(93,148)"/>
<path d="M0 0 C0.70592285 0.00080566 1.4118457 0.00161133 2.13916016 0.00244141 C19.64047319 0.20297319 19.64047319 0.20297319 23.625 4.1875 C21.975 4.8475 20.325 5.5075 18.625 6.1875 C18.29119186 9.56186186 18.29119186 9.56186186 18.625 13.1875 C20.54522703 14.96159808 20.54522703 14.96159808 22.625 16.1875 C22.625 17.1775 22.625 18.1675 22.625 19.1875 C21.965 19.1875 21.305 19.1875 20.625 19.1875 C20.625 18.5275 20.625 17.8675 20.625 17.1875 C20.04492188 17.21070313 19.46484375 17.23390625 18.8671875 17.2578125 C18.08601563 17.27585937 17.30484375 17.29390625 16.5 17.3125 C15.35144531 17.34730469 15.35144531 17.34730469 14.1796875 17.3828125 C8.77041029 16.9692592 4.68709784 14.79225192 0.25 11.8125 C-4.17753574 8.91128301 -8.59050706 6.44433629 -13.375 4.1875 C-9.46228147 -0.09785838 -5.52109283 -0.00647864 0 0 Z " fill="#5AD6E3" transform="translate(344.375,283.8125)"/>
<path d="M0 0 C3.89708887 0.89308287 6.46287867 1.90385193 9 5 C9.6953125 7.05078125 9.6953125 7.05078125 10.125 9.3125 C10.35703125 10.49585938 10.35703125 10.49585938 10.59375 11.703125 C11.59090909 17.34090909 11.59090909 17.34090909 12 20 C12.66 20 13.32 20 14 20 C14 20.66 14 21.32 14 22 C14.66 22 15.32 22 16 22 C16.25 24.25 16.25 24.25 16 27 C14 29.3125 14 29.3125 12 31 C10.2925002 29.71937515 8.62626404 28.38232443 7 27 C7 26.34 7 25.68 7 25 C6.20980469 24.81953125 5.41960937 24.6390625 4.60546875 24.453125 C2 23 2 23 0.92578125 19.734375 C0.69884396 18.40991061 0.49520071 17.08128768 0.3125 15.75 C-0.43793636 11.00500488 -1.34676546 6.53056614 -3 2 C-2.01 1.34 -1.02 0.68 0 0 Z " fill="#9EF0F5" transform="translate(341,318)"/>
<path d="M0 0 C0 0.66 0 1.32 0 2 C0.59949463 2.01981934 1.19898926 2.03963867 1.81665039 2.06005859 C4.56566471 2.15605003 7.31399493 2.26542505 10.0625 2.375 C11.47692383 2.42140625 11.47692383 2.42140625 12.91992188 2.46875 C18.27566579 2.69268354 22.92098241 3.26707583 28 5 C25.16813911 7.83186089 22.76488032 7.99176023 18.80371094 8.01025391 C17.08541115 7.97365862 15.36722331 7.93151968 13.64916992 7.88476562 C4.72837369 7.65238371 -2.89702288 7.7492579 -11 12 C-10.44040477 8.17753412 -8.78682643 6.41028259 -6.0625 3.75 C-5.35222656 3.04359375 -4.64195312 2.3371875 -3.91015625 1.609375 C-2 0 -2 0 0 0 Z " fill="#41B3C4" transform="translate(339,263)"/>
<path d="M0 0 C3.77094419 0.06104046 6.87555117 0.5109396 10.3125 2.1875 C11.1875 4.3125 11.1875 4.3125 11.3125 6.1875 C11.9725 6.1875 12.6325 6.1875 13.3125 6.1875 C12.9375 8.125 12.9375 8.125 12.3125 10.1875 C9.78774538 11.44987731 8.00049534 11.28606404 5.1875 11.25 C4.27742188 11.24097656 3.36734375 11.23195313 2.4296875 11.22265625 C1.73101562 11.21105469 1.03234375 11.19945312 0.3125 11.1875 C-0.0175 9.8675 -0.3475 8.5475 -0.6875 7.1875 C-2.0075 6.8575 -3.3275 6.5275 -4.6875 6.1875 C-4.730221 4.52138095 -4.72813832 2.85367115 -4.6875 1.1875 C-3.6875 0.1875 -3.6875 0.1875 0 0 Z " fill="#B2F6FB" transform="translate(370.6875,291.8125)"/>
<path d="M0 0 C0.33 1.32 0.66 2.64 1 4 C-3.67049515 6.7376287 -6.98799719 7.33996234 -12.375 7.1875 C-13.62023437 7.16042969 -14.86546875 7.13335937 -16.1484375 7.10546875 C-17.55996094 7.05326172 -17.55996094 7.05326172 -19 7 C-18.6796875 5.109375 -18.6796875 5.109375 -18 3 C-12.1679039 -0.54997154 -6.68372526 -0.32633017 0 0 Z " fill="#98EDF3" transform="translate(362,257)"/>
<path d="M0 0 C0.33 0 0.66 0 1 0 C1.09796875 1.00160156 1.1959375 2.00320313 1.296875 3.03515625 C2.06849113 10.13937685 2.79313253 16.02896231 7 22 C7.33 22.99 7.66 23.98 8 25 C8.66 25 9.32 25 10 25 C10 25.66 10 26.32 10 27 C10.66 27 11.32 27 12 27 C12 27.99 12 28.98 12 30 C12.99 30 13.98 30 15 30 C14.67 30.99 14.34 31.98 14 33 C13.34 33 12.68 33 12 33 C11.67 33.99 11.34 34.98 11 36 C1.51167635 25.45741817 -0.4750293 14.01336434 0 0 Z " fill="#36A2B5" transform="translate(324,332)"/>
<path d="M0 0 C7.18019215 0.97337112 12.52553848 6.00865716 17.0625 11.4375 C17.701875 12.283125 18.34125 13.12875 19 14 C17.865625 14.12375 16.73125 14.2475 15.5625 14.375 C13.7990625 14.684375 13.7990625 14.684375 12 15 C11.67 15.66 11.34 16.32 11 17 C10.67 15.02 10.34 13.04 10 11 C8.35 10.67 6.7 10.34 5 10 C4.67 8.35 4.34 6.7 4 5 C3.34 5 2.68 5 2 5 C1.34 3.35 0.68 1.7 0 0 Z " fill="#8BE9F0" transform="translate(326,305)"/>
<path d="M0 0 C6.65025019 7.60028593 9.16386856 14.77701222 9.0625 24.8125 C9.05347656 25.97394531 9.04445313 27.13539063 9.03515625 28.33203125 C9.02355469 29.21246094 9.01195312 30.09289062 9 31 C8.34 30.01 7.68 29.02 7 28 C4.43717258 27.27034634 4.43717258 27.27034634 2 27 C2 26.34 2 25.68 2 25 C1.34 25 0.68 25 0 25 C0 24.34 0 23.68 0 23 C-0.66 22.67 -1.32 22.34 -2 22 C-1.01 21.67 -0.02 21.34 1 21 C1 21.66 1 22.32 1 23 C1.99 23 2.98 23 4 23 C5.9451 20.08235 6.45276317 18.37462715 7 15 C6.34 15 5.68 15 5 15 C5 14.34 5 13.68 5 13 C4.34 13 3.68 13 3 13 C-0.42857143 4.57142857 -0.42857143 4.57142857 0 0 Z " fill="#7CD6DD" transform="translate(350,325)"/>
<path d="M0 0 C3.02990095 1.71967351 5.76327296 3.29238306 8 6 C8 6.66 8 7.32 8 8 C8.66 8 9.32 8 10 8 C10 8.66 10 9.32 10 10 C11.98 10 13.96 10 16 10 C16 12.31 16 14.62 16 17 C14.35 17 12.7 17 11 17 C10.896875 16.360625 10.79375 15.72125 10.6875 15.0625 C10.460625 14.381875 10.23375 13.70125 10 13 C9.01 12.67 8.02 12.34 7 12 C7 11.34 7 10.68 7 10 C5.68 10 4.36 10 3 10 C3 8.35 3 6.7 3 5 C2.34 5 1.68 5 1 5 C0.67 3.35 0.34 1.7 0 0 Z " fill="#72E4EF" transform="translate(342,342)"/>
<path d="M0 0 C0.78375 0.495 1.5675 0.99 2.375 1.5 C4.78552327 3.16537965 4.78552327 3.16537965 7 3 C7 3.66 7 4.32 7 5 C7.66 5 8.32 5 9 5 C9 5.99 9 6.98 9 8 C9.66 8.33 10.32 8.66 11 9 C9.35 10.65 7.7 12.3 6 14 C5.01 13.34 4.02 12.68 3 12 C3 11.34 3 10.68 3 10 C2.01 10 1.02 10 0 10 C-0.19412181 8.52168779 -0.38012131 7.04230684 -0.5625 5.5625 C-0.66691406 4.73878906 -0.77132813 3.91507812 -0.87890625 3.06640625 C-0.91886719 2.38449219 -0.95882813 1.70257813 -1 1 C-0.67 0.67 -0.34 0.34 0 0 Z " fill="#ABF5FA" transform="translate(344,330)"/>
<path d="M0 0 C4.29866268 1.00302129 7.04112655 2.52856986 10.75 4.875 C8.8125 5.4375 8.8125 5.4375 6.75 5.875 C6.42 5.545 6.09 5.215 5.75 4.875 C3.07941149 4.73384839 0.42567762 4.83252893 -2.25 4.875 C-2.58 6.525 -2.91 8.175 -3.25 9.875 C-2.2909375 10.0296875 -2.2909375 10.0296875 -1.3125 10.1875 C-0.631875 10.414375 0.04875 10.64125 0.75 10.875 C1.08 11.865 1.41 12.855 1.75 13.875 C1.09 13.875 0.43 13.875 -0.25 13.875 C-0.25 13.215 -0.25 12.555 -0.25 11.875 C-1.03375 11.75125 -1.8175 11.6275 -2.625 11.5 C-5.25 10.875 -5.25 10.875 -7.25 8.875 C-7.0625 5.375 -7.0625 5.375 -6.25 1.875 C-3.25 -0.125 -3.25 -0.125 0 0 Z " fill="#8FEFF7" transform="translate(369.25,288.125)"/>
<path d="M0 0 C2.05078125 0.03255208 4.1015625 0.06510417 6.15234375 0.09765625 C5.16234375 0.42765625 4.17234375 0.75765625 3.15234375 1.09765625 C3.15234375 3.73765625 3.15234375 6.37765625 3.15234375 9.09765625 C4.77815341 8.9836696 6.40301532 8.85609966 8.02734375 8.72265625 C8.93226563 8.65304687 9.8371875 8.5834375 10.76953125 8.51171875 C13.33176278 8.30197493 13.33176278 8.30197493 15.15234375 6.09765625 C14.77734375 8.03515625 14.77734375 8.03515625 14.15234375 10.09765625 C11.62758913 11.36003356 9.84033909 11.19622029 7.02734375 11.16015625 C6.11726563 11.15113281 5.2071875 11.14210938 4.26953125 11.1328125 C3.57085937 11.12121094 2.8721875 11.10960937 2.15234375 11.09765625 C1.82234375 9.77765625 1.49234375 8.45765625 1.15234375 7.09765625 C-0.16765625 6.76765625 -1.48765625 6.43765625 -2.84765625 6.09765625 C-2.89037725 4.4315372 -2.88829457 2.7638274 -2.84765625 1.09765625 C-1.84765625 0.09765625 -1.84765625 0.09765625 0 0 Z " fill="#A3F3F9" transform="translate(368.84765625,291.90234375)"/>
<path d="M0 0 C14.78132118 -0.3690205 14.78132118 -0.3690205 21 2 C19 4 19 4 15.5625 4.1875 C12 4 12 4 9 3 C8.21625 3.165 7.4325 3.33 6.625 3.5 C3.74911647 4.04778734 1.81089538 3.72280167 -1 3 C-0.67 2.01 -0.34 1.02 0 0 Z " fill="#46BED0" transform="translate(346,266)"/>
<path d="M0 0 C0.99 0.33 1.98 0.66 3 1 C3.8125 2.9375 3.8125 2.9375 4 5 C2 7 2 7 -0.21484375 7.24291992 C-1.11332031 7.23881104 -2.01179688 7.23470215 -2.9375 7.23046875 C-4.40316406 7.22756836 -4.40316406 7.22756836 -5.8984375 7.22460938 C-6.92195313 7.21236328 -7.94546875 7.20011719 -9 7.1875 C-10.02351563 7.18685547 -11.04703125 7.18621094 -12.1015625 7.18554688 C-19.71935497 7.14032251 -19.71935497 7.14032251 -22 6 C-22 5.01 -22 4.02 -22 3 C-20.68 2.67 -19.36 2.34 -18 2 C-18.33 3.32 -18.66 4.64 -19 6 C-16.77027727 5.88534579 -14.54121247 5.75785234 -12.3125 5.625 C-10.45044922 5.52058594 -10.45044922 5.52058594 -8.55078125 5.4140625 C-5.30682228 5.03577906 -2.93432815 4.38020024 0 3 C0 2.01 0 1.02 0 0 Z " fill="#6CDBE6" transform="translate(362,258)"/>
<path d="M0 0 C1.64671412 0.30782496 3.29235576 0.62139234 4.9375 0.9375 C5.85402344 1.11152344 6.77054687 1.28554688 7.71484375 1.46484375 C10 2 10 2 11 3 C12.34747084 3.23075082 13.70377565 3.41153063 15.0625 3.5625 C16.361875 3.706875 17.66125 3.85125 19 4 C18.01 5.485 18.01 5.485 17 7 C9.575 6.01 9.575 6.01 2 5 C1.34 3.35 0.68 1.7 0 0 Z " fill="#59D5E4" transform="translate(368,303)"/>
<path d="M0 0 C0.33 1.32 0.66 2.64 1 4 C1.66 4 2.32 4 3 4 C3.12117188 4.59167969 3.24234375 5.18335938 3.3671875 5.79296875 C4.10931313 9.29237653 4.8182546 12.55998481 6.1875 15.875 C7 18 7 18 6 21 C5.67386719 20.38511719 5.34773438 19.77023437 5.01171875 19.13671875 C4.35623047 17.92435547 4.35623047 17.92435547 3.6875 16.6875 C3.25824219 15.88699219 2.82898438 15.08648437 2.38671875 14.26171875 C1.13440317 11.96660481 1.13440317 11.96660481 -0.71875 10.5 C-2 9 -2 9 -1.85546875 6.73828125 C-1.63503906 5.93777344 -1.41460937 5.13726562 -1.1875 4.3125 C-0.97480469 3.50425781 -0.76210938 2.69601562 -0.54296875 1.86328125 C-0.36378906 1.24839844 -0.18460937 0.63351562 0 0 Z " fill="#5CD7E5" transform="translate(335,320)"/>
<path d="M0 0 C0.66 1.32 1.32 2.64 2 4 C3.65 4 5.3 4 7 4 C6.34 5.98 5.68 7.96 5 10 C3.33388095 10.042721 1.66617115 10.04063832 0 10 C-1 9 -1 9 -1.125 5.5625 C-1 2 -1 2 0 0 Z " fill="#49C4D5" transform="translate(351,355)"/>
<path d="M0 0 C6.11774896 -0.49940808 9.02495953 0.75099398 14 4 C13.67 5.65 13.34 7.3 13 9 C11.2063257 7.8782037 9.4151227 6.75245517 7.625 5.625 C6.12839844 4.68527344 6.12839844 4.68527344 4.6015625 3.7265625 C2 2 2 2 0 0 Z " fill="#41B3C3" transform="translate(339,291)"/>
<path d="M0 0 C1.51400391 0.01740234 1.51400391 0.01740234 3.05859375 0.03515625 C4.07050781 0.04417969 5.08242188 0.05320312 6.125 0.0625 C7.29869141 0.07990234 7.29869141 0.07990234 8.49609375 0.09765625 C7.17609375 0.42765625 5.85609375 0.75765625 4.49609375 1.09765625 C4.49609375 2.41765625 4.49609375 3.73765625 4.49609375 5.09765625 C2.18609375 5.42765625 -0.12390625 5.75765625 -2.50390625 6.09765625 C-2.88609392 4.44150968 -3.21785727 2.77308601 -3.50390625 1.09765625 C-2.50390625 0.09765625 -2.50390625 0.09765625 0 0 Z " fill="#A9EEF2" transform="translate(353.50390625,256.90234375)"/>
<path d="M0 0 C2.31 1.98 4.62 3.96 7 6 C6.3125 8.4375 6.3125 8.4375 5 11 C2.5 11.875 2.5 11.875 0 12 C-0.66 11.67 -1.32 11.34 -2 11 C-2 10.34 -2 9.68 -2 9 C-1.0409375 8.5978125 -1.0409375 8.5978125 -0.0625 8.1875 C2.33131686 7.11332248 2.33131686 7.11332248 3 4 C2.34 4 1.68 4 1 4 C0.67 2.68 0.34 1.36 0 0 Z " fill="#82E7EF" transform="translate(381,294)"/>
<path d="M0 0 C2.38564077 0.57584432 4.66682784 1.22227595 7 2 C6.67 2.99 6.34 3.98 6 5 C5.34 5 4.68 5 4 5 C3.67 5.99 3.34 6.98 3 8 C0.9375 6.25 0.9375 6.25 -1 4 C-0.75 1.75 -0.75 1.75 0 0 Z " fill="#3CACBF" transform="translate(332,360)"/>
<path d="M0 0 C3.0438529 1.52192645 4.70402042 2.40804083 6.25 5.5 C6.4975 6.325 6.745 7.15 7 8 C7.33 8.99 7.66 9.98 8 11 C8.66 11 9.32 11 10 11 C10 11.66 10 12.32 10 13 C9.01 12.67 8.02 12.34 7 12 C7 11.34 7 10.68 7 10 C5.68 10 4.36 10 3 10 C3 8.35 3 6.7 3 5 C2.34 5 1.68 5 1 5 C0.67 3.35 0.34 1.7 0 0 Z " fill="#5DD6E5" transform="translate(342,342)"/>
<path d="M0 0 C4.31392226 0.4793247 6.16569547 1.7457985 9 5 C7.68 5 6.36 5 5 5 C5 5.66 5 6.32 5 7 C5.66 7 6.32 7 7 7 C6.67 8.32 6.34 9.64 6 11 C4 8 4 8 4 5 C3.34 5 2.68 5 2 5 C1.34 3.35 0.68 1.7 0 0 Z " fill="#74DEE6" transform="translate(326,305)"/>
<path d="M0 0 C5.70709064 0.46588495 9.15939723 1.93757784 14 5 C12.375 5.6875 12.375 5.6875 10 6 C6.27808042 4.44920018 3.13164723 2.52940738 0 0 Z " fill="#89E5EC" transform="translate(366,288)"/>
<path d="M0 0 C1.32 0 2.64 0 4 0 C4.33 0.99 4.66 1.98 5 3 C0.77050005 5.41685712 -2.12335991 6.34833144 -7 6 C-4.35261084 4.5393715 -3.10551666 4 0 4 C0 2.68 0 1.36 0 0 Z " fill="#A0F3F9" transform="translate(358,258)"/>
<path d="M0 0 C0.99 0.33 1.98 0.66 3 1 C3.6875 3.0625 3.6875 3.0625 4 5 C0.92677456 5.91058531 -1.80097361 6.08886184 -5 6 C-3 4 -3 4 0 2 C0 1.34 0 0.68 0 0 Z " fill="#81E9F1" transform="translate(362,258)"/>
<path d="M0 0 C0.66 0 1.32 0 2 0 C2 2.97 2 5.94 2 9 C1.01 8.34 0.02 7.68 -1 7 C-0.67 4.69 -0.34 2.38 0 0 Z " fill="#79E9F2" transform="translate(363,290)"/>
<path d="M0 0 C1.9375 0.75 1.9375 0.75 4 2 C4.75 4.125 4.75 4.125 5 6 C-0.75 4.25 -0.75 4.25 -3 2 C-2.01 1.34 -1.02 0.68 0 0 Z " fill="#46B5C3" transform="translate(334,285)"/>
<path d="M0 0 C2.5 1.375 2.5 1.375 5 3 C5 3.66 5 4.32 5 5 C-0.75 4.25 -0.75 4.25 -3 2 C-2.01 1.34 -1.02 0.68 0 0 Z " fill="#3AA9BC" transform="translate(339,366)"/>
<path d="M0 0 C2.97 0.495 2.97 0.495 6 1 C6 1.99 6 2.98 6 4 C4.35 4 2.7 4 1 4 C0.67 2.68 0.34 1.36 0 0 Z " fill="#60DAE7" transform="translate(352,355)"/>
<path d="M0 0 C1 2 2 4 3 6 C2.34 6.66 1.68 7.32 1 8 C0.01 6.68 -0.98 5.36 -2 4 C-1.34 2.68 -0.68 1.36 0 0 Z " fill="#40B2C3" transform="translate(368,309)"/>
<path d="M0 0 C2 1.8125 2 1.8125 4 4 C4 4.99 4 5.98 4 7 C2.35 6.67 0.7 6.34 -1 6 C-0.67 4.02 -0.34 2.04 0 0 Z " fill="#61C7D0" transform="translate(365,259)"/>
<path d="M0 0 C0.33 1.32 0.66 2.64 1 4 C1.66 4 2.32 4 3 4 C3 6.31 3 8.62 3 11 C1.10786631 8.61426621 -0.02391783 6.92824652 -1 4 C-0.5625 1.8125 -0.5625 1.8125 0 0 Z " fill="#67E1ED" transform="translate(335,320)"/>
<path d="M0 0 C0.99 0 1.98 0 3 0 C3.66 2.64 4.32 5.28 5 8 C4.34 8 3.68 8 3 8 C1.92474806 5.34771188 0.90543849 2.71631546 0 0 Z " fill="#78E8F2" transform="translate(333,316)"/>
<path d="M0 0 C0 0.66 0 1.32 0 2 C0.66 2.33 1.32 2.66 2 3 C-1.63 3 -5.26 3 -9 3 C-9 2.67 -9 2.34 -9 2 C-3.375 0 -3.375 0 0 0 Z " fill="#379DAE" transform="translate(358,268)"/>
</svg>
