<?xml version="1.0" encoding="UTF-8"?>
<svg version="1.1" xmlns="http://www.w3.org/2000/svg" width="500" height="500">
<path d="M0 0 C1.07121094 0.75925781 2.14242188 1.51851562 3.24609375 2.30078125 C55.53367592 40.58154687 88.77125404 94.91704589 99 159 C105.09979071 200.81511699 98.80301438 244.34700711 82 283 C81.67306152 283.75941895 81.34612305 284.51883789 81.00927734 285.30126953 C71.33637559 307.47962188 57.78769664 327.98507541 41.21875 345.62890625 C39.29801148 347.68152646 37.48754319 349.7800953 35.6875 351.9375 C-0.86338786 393.67351382 -58.69509101 417.44024349 -113.0625 421.375 C-154.89130227 423.85655053 -196.97255669 416.92893473 -234.14404297 396.98681641 C-236.00134601 395.99928432 -237.87397184 395.04910102 -239.75390625 394.10546875 C-249.40888324 389.20257039 -258.26401407 383.38621488 -267 377 C-267.59135742 376.56848633 -268.18271484 376.13697266 -268.79199219 375.69238281 C-276.25702027 370.18097742 -283.16530983 364.15256344 -289.9375 357.8125 C-290.63544678 357.15934814 -291.33339355 356.50619629 -292.05249023 355.83325195 C-333.79051604 316.11585676 -359.03061679 258.22524943 -360.6875 200.8125 C-360.72512451 199.54438477 -360.76274902 198.27626953 -360.80151367 196.96972656 C-362.12234026 144.629062 -346.09576311 91.08230923 -313 50 C-312.28457031 49.09378906 -311.56914062 48.18757813 -310.83203125 47.25390625 C-272.10379371 -1.07070873 -216.51413643 -31.57478745 -155 -39 C-100.94502456 -44.23902389 -44.53903007 -31.68770235 0 0 Z " fill="#010000" transform="translate(380,59)"/>
<path d="M0 0 C42.12892362 -0.84257847 42.12892362 -0.84257847 57.10546875 12.8046875 C64.79345751 21.71324354 66.18966162 31.4268501 66.25 42.6875 C66.270625 43.63044922 66.29125 44.57339844 66.3125 45.54492188 C66.3753058 56.96772758 63.22908084 66.28236379 55.40625 74.71875 C40.07382213 88.8940135 19.40578442 87.3146884 0 87 C0 75.45 0 63.9 0 52 C5.61 52 11.22 52 17 52 C17 58.27 17 64.54 17 71 C31.87397891 69.52045326 31.87397891 69.52045326 44.4375 61.8125 C49.21874687 53.20625564 50.90242876 42.94488778 48.2734375 33.34765625 C45.00925195 25.37295902 39.75120559 21.3080459 32 18 C28.83754459 16.9458482 26.13051782 16.68724328 22.8125 16.4375 C20.894375 16.293125 18.97625 16.14875 17 16 C17 22.27 17 28.54 17 35 C11.39 35 5.78 35 0 35 C0 23.45 0 11.9 0 0 Z " fill="#F93628" transform="translate(109,218)"/>
<path d="M0 0 C12.43484257 0.76725624 21.48868819 4.32273225 32 11 C33.00933594 11.63164062 34.01867187 12.26328125 35.05859375 12.9140625 C46.17122545 20.79473359 58.36532645 36.49044003 61.63671875 49.83203125 C62.44053345 54.62898995 62.50935941 59.45838197 62.5625 64.3125 C62.57740479 65.33899658 62.59230957 66.36549316 62.60766602 67.4230957 C62.49826862 75.38450727 60.73524967 80.67334499 55.6875 86.8125 C51.59842381 90.14081783 47.81221866 91.69796356 42.625 92.5625 C35.54065549 91.46320516 30.64083932 87.12305334 26.1875 81.6875 C19.454695 72.27404115 18.09766698 63.26484011 17 52 C15.59913975 37.79329609 13.91393942 21.72377814 5.91796875 9.49609375 C5 8 5 8 5 6 C4.01 5.67 3.02 5.34 2 5 C0.8125 2.4375 0.8125 2.4375 0 0 Z " fill="#42B9CC" transform="translate(344,324)"/>
<path d="M0 0 C13.86 0 27.72 0 42 0 C42 5.28 42 10.56 42 16 C33.75 16 25.5 16 17 16 C17 22.27 17 28.54 17 35 C28.55 35 40.1 35 52 35 C52 40.28 52 45.56 52 51 C40.45 51 28.9 51 17 51 C17 57.6 17 64.2 17 71 C25.25 71 33.5 71 42 71 C42 76.28 42 81.56 42 87 C28.14 87 14.28 87 0 87 C0 58.29 0 29.58 0 0 Z " fill="#F43629" transform="translate(129,125)"/>
<path d="M0 0 C5.28 0 10.56 0 16 0 C16.06801315 8.18913242 16.12295203 16.37804201 16.15543652 24.56738186 C16.17103429 28.37079372 16.19216348 32.17400085 16.22631836 35.97729492 C16.25912385 39.65370229 16.2768972 43.32991383 16.28463173 47.00645638 C16.29013751 48.40296571 16.30088814 49.79946539 16.31719017 51.19589043 C16.43193216 61.44020681 16.15117051 70.60887285 8.87109375 78.43359375 C0.56142599 85.39012146 -9.55442308 87.54066902 -20.10546875 87.375 C-29.47531921 86.47278772 -37.87440728 82.18834616 -44 75 C-47.14755544 70.01713526 -49.12910252 65.18805878 -49.11352539 59.25317383 C-49.11344986 58.29240433 -49.11337433 57.33163483 -49.11329651 56.3417511 C-49.10813522 55.30729355 -49.10297394 54.272836 -49.09765625 53.20703125 C-49.0962413 52.14586594 -49.09482635 51.08470062 -49.09336853 49.99137878 C-49.08776606 46.59839065 -49.07521314 43.20546823 -49.0625 39.8125 C-49.05748532 37.51367283 -49.05292236 35.21484462 -49.04882812 32.91601562 C-49.03779583 27.27731838 -49.02052952 21.63867034 -49 16 C-43.72 16 -38.44 16 -33 16 C-32.98541748 17.27117676 -32.97083496 18.54235352 -32.95581055 19.85205078 C-32.89770193 24.58231292 -32.82046952 29.3121053 -32.73754883 34.04199219 C-32.70435859 36.0865108 -32.67630837 38.13111974 -32.65356445 40.17578125 C-32.61991007 43.12018206 -32.56758834 46.06375954 -32.51171875 49.0078125 C-32.50532883 49.9174173 -32.4989389 50.82702209 -32.49235535 51.76419067 C-32.37408179 56.90546489 -31.8700019 60.55793078 -29 65 C-24.05881177 69.45912108 -21.11331981 70.2993613 -14.60546875 70.21484375 C-9.71351353 69.81145914 -6.32641886 68.36379451 -2.83880615 64.77790833 C-0.6533883 61.4763692 -0.48611419 59.67051678 -0.45410156 55.7409668 C-0.43438293 54.50005783 -0.41466431 53.25914886 -0.39434814 51.9806366 C-0.39268526 50.6368311 -0.39145425 49.29302502 -0.390625 47.94921875 C-0.37563565 46.56628997 -0.35890691 45.18337905 -0.34051514 43.80049133 C-0.29691298 40.17226315 -0.27685877 36.54427641 -0.26177979 32.91583252 C-0.24218261 29.2087175 -0.20021568 25.50186225 -0.16015625 21.79492188 C-0.0849314 14.52998503 -0.03666287 7.26525254 0 0 Z " fill="#F83729" transform="translate(228,218)"/>
<path d="M0 0 C5.61 0 11.22 0 17 0 C17 28.71 17 57.42 17 87 C11.39 87 5.78 87 0 87 C0 81.72 0 76.44 0 71 C-10.56 71 -21.12 71 -32 71 C-32 76.28 -32 81.56 -32 87 C-37.61 87 -43.22 87 -49 87 C-49 76.11 -49 65.22 -49 54 C-32.83 54 -16.66 54 0 54 C0 36.18 0 18.36 0 0 Z " fill="#FD3528" transform="translate(109,125)"/>
<path d="M0 0 C3 1 3 1 3.99459839 2.75842285 C4.28625885 3.52714722 4.57791931 4.29587158 4.87841797 5.08789062 C5.21705368 5.96342087 5.55568939 6.83895111 5.90458679 7.74101257 C6.26349503 8.70304092 6.62240326 9.66506927 6.9921875 10.65625 C7.37498367 11.65425125 7.75777985 12.6522525 8.1521759 13.68049622 C9.403665 16.94974732 10.63939942 20.22471463 11.875 23.5 C13.15586026 26.86102998 14.44022307 30.22070888 15.72459412 33.58039856 C16.58404237 35.82985176 17.44208064 38.07984416 18.29872131 40.33036804 C20.86271231 47.0603088 23.47074844 53.76996771 26.14453125 60.45703125 C26.45285889 61.22953217 26.76118652 62.00203308 27.07885742 62.79794312 C28.22394313 65.66380196 29.37029895 68.52906244 30.52850342 71.38964844 C31.29953331 73.29519291 32.06212086 75.20414699 32.82421875 77.11328125 C33.24791748 78.16298096 33.67161621 79.21268066 34.1081543 80.29418945 C35 83 35 83 35 87 C29.39 87 23.78 87 18 87 C17.34773438 85.0921875 16.69546875 83.184375 16.0234375 81.21875 C15.14124935 78.64561684 14.25857346 76.07265724 13.375 73.5 C13.14790344 72.83849945 12.92080688 72.1769989 12.68682861 71.49545288 C9.59376988 62.496454 6.40977956 53.54559328 2.9609375 44.67578125 C2 42 2 42 2 40 C1.34 40 0.68 40 0 40 C-0.16508057 40.64251709 -0.33016113 41.28503418 -0.50024414 41.94702148 C-2.47955943 49.44487381 -4.87588971 56.74544624 -7.4375 64.0625 C-7.81970703 65.16916016 -8.20191406 66.27582031 -8.59570312 67.41601562 C-10.89357057 74.02092155 -13.35189997 80.52753682 -16 87 C-21.61 87 -27.22 87 -33 87 C-32.23740776 83.18703882 -31.40723727 80.16623515 -30.02563477 76.59667969 C-29.61753067 75.53656677 -29.20942657 74.47645386 -28.78895569 73.38421631 C-28.34426437 72.24164368 -27.89957306 71.09907104 -27.44140625 69.921875 C-26.97822495 68.72306702 -26.51504364 67.52425903 -26.03782654 66.28912354 C-25.05250875 63.73947316 -24.06454027 61.19087224 -23.07446289 58.64306641 C-21.83725028 55.45920243 -20.60461224 52.27359597 -19.37378883 49.08725739 C-13.03382703 32.67716569 -6.57490731 16.31740785 0 0 Z " fill="#F93628" transform="translate(217,125)"/>
<path d="M0 0 C6.33919829 -1.08442463 12.7737743 -2.05513848 19 0 C24.23570695 4.07455727 27.4511484 10.07906359 30.69873047 15.75976562 C32.40159544 18.69137706 34.31968556 21.38339445 36.3125 24.125 C37.20984712 25.41561547 38.10643282 26.70676459 39 28 C40.95305623 26.1916146 42.70504418 24.52494059 44.01635742 22.19116211 C45.19433132 20.12119183 46.22012911 18.59206419 48 17 C51.47343486 16.14078583 54.76167156 16.33414284 58.3125 16.5625 C59.70952148 16.60987305 59.70952148 16.60987305 61.13476562 16.65820312 C63.42642852 16.74046795 65.71157286 16.85528362 68 17 C66.58863264 19.97632717 64.96128749 22.65396308 63.1015625 25.37109375 C62.53953125 26.19287109 61.9775 27.01464844 61.3984375 27.86132812 C60.81320312 28.71146484 60.22796875 29.56160156 59.625 30.4375 C59.0475 31.28376953 58.47 32.13003906 57.875 33.00195312 C53.24129319 39.75679741 53.24129319 39.75679741 50.84033203 42.17675781 C48.16947955 46.27409638 48.39722423 49.87990006 48.390625 54.67578125 C48.37408875 55.6009404 48.35755249 56.52609955 48.34051514 57.47929382 C48.29207004 60.42376365 48.27067189 63.36771713 48.25 66.3125 C48.22183741 68.31317697 48.19190958 70.31382992 48.16015625 72.31445312 C48.0863119 77.20959291 48.03671586 82.10444663 48 87 C42.39 87 36.78 87 31 87 C31.03254883 85.81672119 31.06509766 84.63344238 31.09863281 83.41430664 C31.2051728 78.93896757 31.22968089 74.46600555 31.23193359 69.98950195 C31.24379158 68.06834752 31.27663595 66.14718473 31.33251953 64.22680664 C31.7390173 49.55070312 29.00470815 40.93326179 19.45953369 29.73202515 C17.55074988 27.46687596 15.85424066 25.07678581 14.16015625 22.6484375 C13.12859647 21.22323957 12.09610255 19.79871713 11.0625 18.375 C9.51886921 16.24467559 7.97553694 14.11421149 6.43798828 11.97949219 C5.47467905 10.65342916 4.49889115 9.33634715 3.51123047 8.02832031 C0 3.31954689 0 3.31954689 0 0 Z " fill="#FA3628" transform="translate(322,125)"/>
<path d="M0 0 C16.57957954 -1.50419572 16.57957954 -1.50419572 21.62109375 1.62890625 C23.71762226 4.29352636 25.31868022 7.05339253 27 10 C28.57275268 12.25252381 30.19307642 14.4668204 31.81274414 16.68579102 C33.4449779 18.9245327 35.06240631 21.17126555 36.65625 23.4375 C37.10806641 24.07558594 37.55988281 24.71367187 38.02539062 25.37109375 C39 27 39 27 39 29 C39.66 29 40.32 29 41 29 C41.20625 28.319375 41.4125 27.63875 41.625 26.9375 C43.4927082 22.94739611 45.46486093 19.7094424 49 17 C52.50367933 16.1611571 55.79800593 16.33032706 59.375 16.5625 C60.30183594 16.59408203 61.22867188 16.62566406 62.18359375 16.65820312 C64.45904237 16.74030694 66.72783746 16.85500225 69 17 C62.51976196 27.42973224 62.51976196 27.42973224 59 32.0625 C58.55003662 32.6704541 58.10007324 33.2784082 57.63647461 33.90478516 C56 36 56 36 54.20874023 37.8293457 C46.77696127 46.30771504 47.99611733 56.49649729 48.0625 67.125 C48.04937381 69.0547115 48.03312539 70.98440442 48.01367188 72.9140625 C47.97306815 77.60993357 47.97487601 82.30403937 48 87 C42.72 87 37.44 87 32 87 C32.0220752 85.79577393 32.04415039 84.59154785 32.06689453 83.35083008 C32.13635134 78.82332472 32.138641 74.29771469 32.12207031 69.76977539 C32.12400048 67.82143297 32.14342901 65.87301746 32.18164062 63.92504883 C32.44313697 49.77882307 30.75957599 42.24032072 21 32 C19.781976 30.34790126 18.59792032 28.66982098 17.4609375 26.9609375 C16.94684326 26.20095459 16.43274902 25.44097168 15.90307617 24.65795898 C15.39881104 23.90458252 14.8945459 23.15120605 14.375 22.375 C10.14851996 16.11620987 5.85060908 9.95719675 1.29296875 3.93359375 C0 2 0 2 0 0 Z " fill="#F7372A" transform="translate(303,218)"/>
<path d="M0 0 C5.61 0 11.22 0 17 0 C17.47945068 1.35794678 17.95890137 2.71589355 18.45288086 4.11499023 C20.22604539 9.13472821 22.00294809 14.15313599 23.78100586 19.17114258 C24.55123931 21.34656022 25.32044725 23.52234124 26.08862305 25.69848633 C27.19052469 28.8194753 28.2960619 31.93915516 29.40234375 35.05859375 C29.74716293 36.03775253 30.09198212 37.01691132 30.44725037 38.02574158 C30.76750687 38.92659988 31.08776337 39.82745819 31.41772461 40.75561523 C31.69974228 41.55281479 31.98175995 42.35001434 32.27232361 43.17137146 C32.8552056 44.98705746 32.8552056 44.98705746 34 46 C34.39324463 44.90328979 34.39324463 44.90328979 34.79443359 43.78442383 C35.98701883 40.46011225 37.18099512 37.13630193 38.375 33.8125 C38.7875 32.66201172 39.2 31.51152344 39.625 30.32617188 C40.02460938 29.21435547 40.42421875 28.10253906 40.8359375 26.95703125 C41.20251465 25.93585205 41.5690918 24.91467285 41.94677734 23.86254883 C42.91759833 21.22395909 43.95582739 18.61043152 45 16 C50.28 16 55.56 16 61 16 C59.66736937 22.79891597 57.65254345 28.95633596 55.078125 35.37890625 C54.69565613 36.34924301 54.31318726 37.31957977 53.91912842 38.31932068 C52.70234566 41.40290011 51.47656036 44.48279846 50.25 47.5625 C48.64872807 51.60455501 47.05094063 55.64798397 45.453125 59.69140625 C44.87624939 61.14820297 44.87624939 61.14820297 44.28771973 62.63442993 C41.09226664 70.71986598 38.00925223 78.84361679 35 87 C32 86 32 86 31.08770752 84.38224792 C30.83350037 83.67755875 30.57929321 82.97286957 30.31738281 82.24682617 C30.01910583 81.44054276 29.72082886 80.63425934 29.41351318 79.80354309 C29.09658508 78.91317856 28.77965698 78.02281403 28.453125 77.10546875 C27.74235992 75.17466412 27.03073037 73.24417755 26.31835938 71.31396484 C25.75459595 69.77141022 25.75459595 69.77141022 25.17944336 68.19769287 C23.17087476 62.75208548 21.0738202 57.34075335 18.984375 51.92578125 C18.11696046 49.67000916 17.24977473 47.41414909 16.3828125 45.15820312 C15.95000977 44.03293213 15.51720703 42.90766113 15.07128906 41.74829102 C13.73690072 38.27843751 12.40359316 34.80816988 11.0703125 31.33789062 C10.20839877 29.09632901 9.34642192 26.85479165 8.484375 24.61328125 C8.09264099 23.59333572 7.70090698 22.5733902 7.29730225 21.52253723 C6.92301086 20.54999496 6.54871948 19.5774527 6.16308594 18.57543945 C5.80533081 17.64518951 5.44757568 16.71493958 5.07897949 15.75650024 C3.67656035 12.17369934 2.20568443 8.62009933 0.71734619 5.07218933 C0 3 0 3 0 0 Z " fill="#FA3628" transform="translate(256,125)"/>
<path d="M0 0 C1.28390625 0.01027222 1.28390625 0.01027222 2.59375 0.02075195 C21.11004374 0.4718332 39.52115413 5.01047931 53.6875 17.4375 C58.45609447 22.70302215 61.97779413 27.61198301 61.9375 34.875 C61.94523437 36.26525391 61.94523437 36.26525391 61.953125 37.68359375 C61.59621637 41.38389649 60.7778291 44.2142776 58.27734375 47.01953125 C54.30496422 49.97768622 51.07416239 51.29484525 46.078125 50.98046875 C38.46913239 49.25228252 32.82056016 43.94014736 27.60546875 38.43359375 C25.16840276 35.89725827 22.5475545 33.63897528 19.87890625 31.3515625 C17.30348591 29.10208662 14.81510612 26.76763397 12.3125 24.4375 C5.740202 18.44859599 -1.16163175 13.08394106 -9.3125 9.4375 C-9.3125 8.7775 -9.3125 8.1175 -9.3125 7.4375 C-13.7675 6.4475 -13.7675 6.4475 -18.3125 5.4375 C-18.3125 4.7775 -18.3125 4.1175 -18.3125 3.4375 C-12.10303995 1.01301203 -6.65812073 -0.08376259 0 0 Z " fill="#5BD6E3" transform="translate(387.3125,301.5625)"/>
<path d="M0 0 C5.82548836 0.14530697 9.7484573 0.90403303 14.296875 4.6484375 C16.04529827 6.10808641 16.04529827 6.10808641 18.40625 7.359375 C30.62424254 15.08762329 41.69756309 32.25864058 45 46 C45.70881726 53.71359956 45.05560732 61.34684692 44 69 C41.03 68.505 41.03 68.505 38 68 C38 66.68 38 65.36 38 64 C36.68 64 35.36 64 34 64 C32.18830483 62.04894366 31.10993296 60.25651023 30.0625 57.8125 C29.711875 57.214375 29.36125 56.61625 29 56 C27.68 55.67 26.36 55.34 25 55 C24.34 52.36 23.68 49.72 23 47 C22.01 47.495 22.01 47.495 21 48 C20.67 45.36 20.34 42.72 20 40 C19.01 40 18.02 40 17 40 C14.91013908 33.47066053 13.90491248 28.84429703 15 22 C13.7536564 19.33942344 13.7536564 19.33942344 12 17 C10.65028525 14.01642002 10 12.29665696 10 9 C9.01 8.67 8.02 8.34 7 8 C5.8125 5.4375 5.8125 5.4375 5 3 C3.68 3 2.36 3 1 3 C0.67 2.01 0.34 1.02 0 0 Z " fill="#9EF1F7" transform="translate(361,330)"/>
<path d="M0 0 C5.28 0 10.56 0 16 0 C16 18.15 16 36.3 16 55 C10.72 55 5.44 55 0 55 C0 36.85 0 18.7 0 0 Z " fill="#F8372A" transform="translate(266,250)"/>
<path d="M0 0 C0.33 0.66 0.66 1.32 1 2 C1.99 2 2.98 2 4 2 C4 2.66 4 3.32 4 4 C5.65 4 7.3 4 9 4 C9 5.32 9 6.64 9 8 C9.66 8.33 10.32 8.66 11 9 C11 9.66 11 10.32 11 11 C11.61875 10.835 12.2375 10.67 12.875 10.5 C15 10 15 10 17 10 C17.33 10.66 17.66 11.32 18 12 C19.423125 12.2165625 19.423125 12.2165625 20.875 12.4375 C24.26634124 13.04794142 24.78659439 13.58537569 27 16 C29.10332891 16.71447643 29.10332891 16.71447643 31 17 C31 17.99 31 18.98 31 20 C35.33273814 20.92844389 38.66726186 20.92844389 43 20 C43.33 20.639375 43.66 21.27875 44 21.9375 C46.30334121 24.31282062 46.84619335 24.27389989 50 24.5 C50.680625 24.5103125 51.36125 24.520625 52.0625 24.53125 C54 25 54 25 57 29 C57 25.04 57 21.08 57 17 C60.07041418 21.09388558 60.39799915 21.6955857 60.3125 26.4375 C60.30863281 27.36433594 60.30476563 28.29117187 60.30078125 29.24609375 C59.89820977 32.93197551 59.08515801 35.78257896 56.58984375 38.58203125 C52.61746422 41.54018622 49.38666239 42.85734525 44.390625 42.54296875 C36.78163239 40.81478252 31.13306016 35.50264736 25.91796875 29.99609375 C23.48090276 27.45975827 20.8600545 25.20147528 18.19140625 22.9140625 C15.61598591 20.66458662 13.12760612 18.33013397 10.625 16 C6.3096288 12.05176638 1.86228407 8.61393628 -3.00390625 5.375 C-5 4 -5 4 -7 2 C-2.25 0 -2.25 0 0 0 Z " fill="#4AC3D4" transform="translate(389,310)"/>
<path d="M0 0 C17.16 0 34.32 0 52 0 C52 4.95 52 9.9 52 15 C34.84 15 17.68 15 0 15 C0 10.05 0 5.1 0 0 Z " fill="#F4372A" transform="translate(248,218)"/>
<path d="M0 0 C2.15128178 2.15128178 2.88026052 3.48112894 3.5625 6.4375 C2.69398438 10.39407116 0.21429164 11.73108825 -3 14 C-6.35077228 15.11692409 -8.7589684 15.06773973 -12.28515625 14.9921875 C-13.53876953 14.97542969 -14.79238281 14.95867187 -16.08398438 14.94140625 C-18.70913537 14.8975893 -21.33416538 14.84567839 -23.95898438 14.78515625 C-31.60033486 14.69934221 -37.83467924 15.38404867 -45 18 C-46.32913719 18.34969018 -47.66143158 18.68835362 -49 19 C-48.35112395 13.37640758 -43.76007611 9.44139232 -39.625 6 C-28.32943706 -2.02579472 -12.8022204 -7.46028671 0 0 Z " fill="#71E5EF" transform="translate(416,270)"/>
<path d="M0 0 C5.28 0 10.56 0 16 0 C16 12.21 16 24.42 16 37 C10.72 37 5.44 37 0 37 C0 24.79 0 12.58 0 0 Z " fill="#F8372A" transform="translate(60,125)"/>
<path d="M0 0 C5.61 0 11.22 0 17 0 C17 28.71 17 57.42 17 87 C11.39 87 5.78 87 0 87 C0 81.72 0 76.44 0 71 C-10.56 71 -21.12 71 -32 71 C-32 76.28 -32 81.56 -32 87 C-32.33 87 -32.66 87 -33 87 C-33 81.06 -33 75.12 -33 69 C-28.17612933 68.9770898 -23.35244611 68.95716314 -18.52856445 68.94506836 C-16.88630536 68.94002826 -15.24405077 68.93319622 -13.60180664 68.92456055 C-11.24624521 68.91248074 -8.89074291 68.90676861 -6.53515625 68.90234375 C-5.79660904 68.89718246 -5.05806183 68.89202118 -4.2971344 68.88670349 C-2.53101912 68.8865075 -0.76502854 68.93805281 1 69 C2 70 2 70 2.09765625 73.37890625 C2.09098369 74.77347077 2.07902532 76.16801743 2.0625 77.5625 C2.05798828 78.27341797 2.05347656 78.98433594 2.04882812 79.71679688 C2.03700864 81.47790013 2.01907263 83.23896036 2 85 C8.93 85.495 8.93 85.495 16 86 C16 57.95 16 29.9 16 1 C11.38 1 6.76 1 2 1 C2.00523682 2.6305835 2.01047363 4.26116699 2.01586914 5.94116211 C2.03391085 11.96622167 2.04542896 17.99127883 2.05493164 24.01635742 C2.05997377 26.62866619 2.06680725 29.24097211 2.07543945 31.85327148 C2.08751036 35.59880268 2.09322935 39.34429672 2.09765625 43.08984375 C2.10281754 44.26586655 2.10797882 45.44188934 2.11329651 46.65354919 C2.11337204 47.73459427 2.11344757 48.81563934 2.11352539 49.92944336 C2.115746 50.88652695 2.11796661 51.84361053 2.12025452 52.82969666 C2 55 2 55 1 56 C-0.38555338 56.0980191 -1.77602361 56.12798159 -3.16503906 56.12939453 C-4.04975891 56.13254669 -4.93447876 56.13569885 -5.8460083 56.13894653 C-7.29121857 56.13591019 -7.29121857 56.13591019 -8.765625 56.1328125 C-9.75117371 56.13376923 -10.73672241 56.13472595 -11.75213623 56.13571167 C-13.84370996 56.13639385 -15.93528578 56.13453693 -18.02685547 56.13037109 C-21.22237958 56.12504603 -24.41776167 56.13030304 -27.61328125 56.13671875 C-29.64322948 56.13605753 -31.67317761 56.13477546 -33.703125 56.1328125 C-34.65850159 56.13483673 -35.61387817 56.13686096 -36.59820557 56.13894653 C-37.49553406 56.13579437 -38.39286255 56.13264221 -39.31738281 56.12939453 C-40.10268372 56.12859894 -40.88798462 56.12780334 -41.69708252 56.12698364 C-44.20630942 55.98862403 -46.54980712 55.54603427 -49 55 C-49 54.67 -49 54.34 -49 54 C-32.83 54 -16.66 54 0 54 C0 36.18 0 18.36 0 0 Z " fill="#DA443A" transform="translate(109,125)"/>
<path d="M0 0 C3.2109375 1.35546875 3.2109375 1.35546875 6.375 3.1875 C7.43460937 3.77917969 8.49421875 4.37085938 9.5859375 4.98046875 C12 7 12 7 12.3515625 9.73828125 C12.23554688 10.48464844 12.11953125 11.23101562 12 12 C12.99 11.67 13.98 11.34 15 11 C15.99 12.98 16.98 14.96 18 17 C16.8984375 18.51171875 16.8984375 18.51171875 15 20 C12.0390625 20.14453125 12.0390625 20.14453125 8.625 19.8125 C7.50351562 19.71582031 6.38203125 19.61914062 5.2265625 19.51953125 C0.03908993 18.68426024 -4.40429833 16.50674636 -9 14 C-10.26237731 11.47524538 -10.09856404 9.68799534 -10.0625 6.875 C-10.05347656 5.96492188 -10.04445313 5.05484375 -10.03515625 4.1171875 C-10.02355469 3.41851562 -10.01195312 2.71984375 -10 2 C-6.56829176 -0.11182045 -3.99571101 -0.411469 0 0 Z " fill="#96F1F8" transform="translate(424,308)"/>
<path d="M0 0 C1.77155654 0.11429397 3.54226229 0.24183037 5.3125 0.375 C6.79169922 0.47941406 6.79169922 0.47941406 8.30078125 0.5859375 C11 1 11 1 14 3 C11.35261084 4.4606285 10.10551666 5 7 5 C7.14095064 6.6254308 7.28792087 8.25034051 7.4375 9.875 C7.51871094 10.77992188 7.59992188 11.68484375 7.68359375 12.6171875 C7.86989285 15.01110861 7.86989285 15.01110861 9 17 C10.64034193 17.72904086 12.31301918 18.38655243 14 19 C14.74378906 19.33773438 15.48757813 19.67546875 16.25390625 20.0234375 C19.45918762 21.16329574 22.29618969 21.416185 25.6875 21.625 C26.82574219 21.69976562 27.96398437 21.77453125 29.13671875 21.8515625 C30.7563924 21.93552921 32.37815132 22 34 22 C33.38722388 19.03824877 32.74627478 17.61941217 31 15 C30.34 15 29.68 15 29 15 C29.33 13.68 29.66 12.36 30 11 C31.66666667 12.66666667 33.33333333 14.33333333 35 16 C35.7425 16.639375 36.485 17.27875 37.25 17.9375 C41.15346577 22.53801323 40.11470108 29.26494597 40 35 C39.34 34.360625 38.68 33.72125 38 33.0625 C35.02535148 31.01742914 34.20074044 30.74069468 30.8125 30.5 C29.554375 30.335 28.29625 30.17 27 30 C25.5 27.9375 25.5 27.9375 25 26 C23.02 26 21.04 26 19 26 C18.67 26.66 18.34 27.32 18 28 C17.67 27.34 17.34 26.68 17 26 C14.97536745 25.34786708 14.97536745 25.34786708 13 25 C13 24.01 13 23.02 13 22 C11.68 22 10.36 22 9 22 C6 17.92857143 6 17.92857143 6 15 C5.01 14.67 4.02 14.34 3 14 C3 10.37 3 6.74 3 3 C2.34 3 1.68 3 1 3 C0.67 2.01 0.34 1.02 0 0 Z " fill="#6AE0EB" transform="translate(407,305)"/>
<path d="M0 0 C0.66 0.33 1.32 0.66 2 1 C1.67 1.99 1.34 2.98 1 4 C1.6705542 3.99476318 2.3411084 3.98952637 3.03198242 3.98413086 C6.083812 3.96328395 9.13562656 3.95031531 12.1875 3.9375 C13.77014648 3.92493164 13.77014648 3.92493164 15.38476562 3.91210938 C16.91713867 3.90727539 16.91713867 3.90727539 18.48046875 3.90234375 C19.41785889 3.89710693 20.35524902 3.89187012 21.32104492 3.88647461 C24.00889957 4.00037713 26.40773193 4.27651662 29 5 C29.495 5.99 29.495 5.99 30 7 C32.31 7 34.62 7 37 7 C34.94766315 9.2477975 33.99332739 10.0022242 31 11 C28.90550882 11.04854602 26.80941672 11.0370659 24.71484375 10.9921875 C23.46123047 10.97542969 22.20761719 10.95867187 20.91601562 10.94140625 C18.29086463 10.8975893 15.66583462 10.84567839 13.04101562 10.78515625 C5.39966514 10.69934221 -0.83467924 11.38404867 -8 14 C-9.32913719 14.34969018 -10.66143158 14.68835362 -12 15 C-11.35466349 9.40708357 -6.78471691 5.55229282 -2.6875 2.125 C-1.800625 1.42375 -0.91375 0.7225 0 0 Z " fill="#4CC3D4" transform="translate(379,274)"/>
<path d="M0 0 C5.92768267 0.14785603 9.7957243 0.9814896 14.4375 4.7421875 C16.11319347 6.16729478 16.11319347 6.16729478 18.75 7.5 C21.44025387 9.29350258 22.53735847 11.15169808 24 14 C23.34 14 22.68 14 22 14 C22 13.34 22 12.68 22 12 C21.34 12 20.68 12 20 12 C17.64355532 16.46484255 18.14802773 19.33001933 19.4375 24 C19.74558594 24.99 20.05367188 25.98 20.37109375 27 C21.06999641 30.33389592 20.75082554 32.70225645 20 36 C20.66 36 21.32 36 22 36 C22.99 41.445 22.99 41.445 24 47 C22.515 47.495 22.515 47.495 21 48 C20.67 45.36 20.34 42.72 20 40 C19.01 40 18.02 40 17 40 C14.91013908 33.47066053 13.90491248 28.84429703 15 22 C13.7536564 19.33942344 13.7536564 19.33942344 12 17 C10.65028525 14.01642002 10 12.29665696 10 9 C9.01 8.67 8.02 8.34 7 8 C5.8125 5.4375 5.8125 5.4375 5 3 C3.68 3 2.36 3 1 3 C0.67 2.01 0.34 1.02 0 0 Z " fill="#84E9F1" transform="translate(361,330)"/>
<path d="M0 0 C0.99 0 1.98 0 3 0 C3 28.71 3 57.42 3 87 C2.01 87 1.02 87 0 87 C0 58.29 0 29.58 0 0 Z " fill="#1F0000" transform="translate(126,125)"/>
<path d="M0 0 C17.0521542 1.0521542 17.0521542 1.0521542 22 6 C20.68 6.33 19.36 6.66 18 7 C18 7.66 18 8.32 18 9 C18.66 9 19.32 9 20 9 C20.33 10.65 20.66 12.3 21 14 C20.01 14 19.02 14 18 14 C16.68 16.64 15.36 19.28 14 22 C13.67 21.34 13.34 20.68 13 20 C12.34 20 11.68 20 11 20 C9.99515796 18.04414675 8.99626195 16.08523763 8 14.125 C7.443125 13.03445313 6.88625 11.94390625 6.3125 10.8203125 C5 8 5 8 5 6 C4.01 5.67 3.02 5.34 2 5 C0.8125 2.4375 0.8125 2.4375 0 0 Z " fill="#55D3E3" transform="translate(344,324)"/>
<path d="M0 0 C0 18.81 0 37.62 0 57 C-6.6 57 -13.2 57 -20 57 C-19.67 38.52 -19.34 20.04 -19 1 C-13.32745403 -1.83627298 -6.3420992 0 0 0 Z M-17 1 C-17 19.15 -17 37.3 -17 56 C-11.72 56 -6.44 56 -1 56 C-1 37.85 -1 19.7 -1 1 C-6.28 1 -11.56 1 -17 1 Z " fill="#3E0804" transform="translate(283,249)"/>
<path d="M0 0 C2.19795444 3.29693166 2.24888604 4.27109857 2.24291992 8.09814453 C2.24753487 9.65458176 2.24753487 9.65458176 2.25224304 11.24246216 C2.24505753 12.36127777 2.23787201 13.48009338 2.23046875 14.6328125 C2.23001053 15.78039032 2.22955231 16.92796814 2.2290802 18.11032104 C2.22605808 20.53628575 2.21817302 22.96224851 2.20581055 25.38818359 C2.18753954 29.11693127 2.18530095 32.84543096 2.18554688 36.57421875 C2.18063235 38.9270855 2.17480432 41.27995055 2.16796875 43.6328125 C2.16685593 44.75567657 2.1657431 45.87854065 2.16459656 47.03543091 C2.15821671 48.0667514 2.15183685 49.0980719 2.14526367 50.16064453 C2.13954597 51.52940231 2.13954597 51.52940231 2.13371277 52.92581177 C2 55 2 55 1 56 C-0.38555338 56.0980191 -1.77602361 56.12798159 -3.16503906 56.12939453 C-4.04975891 56.13254669 -4.93447876 56.13569885 -5.8460083 56.13894653 C-7.29121857 56.13591019 -7.29121857 56.13591019 -8.765625 56.1328125 C-9.75117371 56.13376923 -10.73672241 56.13472595 -11.75213623 56.13571167 C-13.84370996 56.13639385 -15.93528578 56.13453693 -18.02685547 56.13037109 C-21.22237958 56.12504603 -24.41776167 56.13030304 -27.61328125 56.13671875 C-29.64322948 56.13605753 -31.67317761 56.13477546 -33.703125 56.1328125 C-34.65850159 56.13483673 -35.61387817 56.13686096 -36.59820557 56.13894653 C-37.49553406 56.13579437 -38.39286255 56.13264221 -39.31738281 56.12939453 C-40.10268372 56.12859894 -40.88798462 56.12780334 -41.69708252 56.12698364 C-44.20630942 55.98862403 -46.54980712 55.54603427 -49 55 C-49 54.67 -49 54.34 -49 54 C-32.83 54 -16.66 54 0 54 C0 36.18 0 18.36 0 0 Z " fill="#B63329" transform="translate(109,125)"/>
<path d="M0 0 C1.02867187 -0.01740234 1.02867187 -0.01740234 2.078125 -0.03515625 C6.77998421 -0.00823721 9.97076417 0.99523259 14 3.375 C13.67 4.695 13.34 6.015 13 7.375 C-9.62195122 9.96036585 -9.62195122 9.96036585 -15 6.375 C-14 3.375 -14 3.375 -11.4375 1.7109375 C-7.52536698 0.19054035 -4.13176243 -0.06989824 0 0 Z " fill="#93F0F5" transform="translate(401,267.625)"/>
<path d="M0 0 C1.32 0 2.64 0 4 0 C4 4.95 4 9.9 4 15 C21.16 15 38.32 15 56 15 C56 15.33 56 15.66 56 16 C37.85 16 19.7 16 1 16 C1 32.83 1 49.66 1 67 C0.01 67.495 0.01 67.495 -1 68 C-0.67 45.56 -0.34 23.12 0 0 Z " fill="#390503" transform="translate(244,218)"/>
<path d="M0 0 C6.373125 -0.061875 6.373125 -0.061875 12.875 -0.125 C14.1935498 -0.14320801 15.51209961 -0.16141602 16.87060547 -0.18017578 C23.83286826 -0.21263632 30.24603597 0.27006466 37 2 C37 2.33 37 2.66 37 3 C35.083412 3.02712153 33.1667127 3.04645097 31.25 3.0625 C29.64898437 3.07990234 29.64898437 3.07990234 28.015625 3.09765625 C25 3 25 3 23.09570312 2.51367188 C20.8442959 1.96183581 18.76726227 1.79304619 16.453125 1.68359375 C15.31085449 1.62643188 15.31085449 1.62643188 14.14550781 1.56811523 C13.18999023 1.52501221 12.23447266 1.48190918 11.25 1.4375 C8.1975 1.293125 5.145 1.14875 2 1 C2 11.56 2 22.12 2 33 C6.62 33 11.24 33 16 33 C16 27.39 16 21.78 16 16 C16.33 16 16.66 16 17 16 C17 22.27 17 28.54 17 35 C11.39 35 5.78 35 0 35 C0 23.45 0 11.9 0 0 Z " fill="#CE3D33" transform="translate(109,218)"/>
<path d="M0 0 C3.88810135 0.02782183 6.02069949 1.03562251 9.25 3.25 C10.24 3.25 11.23 3.25 12.25 3.25 C12.25 4.57 12.25 5.89 12.25 7.25 C12.91 7.25 13.57 7.25 14.25 7.25 C13.25 10.25 13.25 10.25 11.25 11.25 C9.12856978 11.39867166 7.00144008 11.4713289 4.875 11.5 C3.16183594 11.53867187 3.16183594 11.53867187 1.4140625 11.578125 C-1.97936235 11.22621427 -3.29708921 10.54582784 -5.75 8.25 C-4.74022005 0.31601467 -4.74022005 0.31601467 0 0 Z " fill="#B2F6FC" transform="translate(423.75,312.75)"/>
<path d="M0 0 C3 1 3 1 4.06188965 2.91319275 C4.38371216 3.75128983 4.70553467 4.5893869 5.03710938 5.45288086 C5.40759399 6.40154526 5.77807861 7.35020966 6.15979004 8.32762146 C6.55049683 9.36290482 6.94120361 10.39818817 7.34375 11.46484375 C7.75411499 12.52731827 8.16447998 13.58979279 8.58728027 14.6844635 C9.45655742 16.9413337 10.32037386 19.20031348 11.17919922 21.46118164 C12.48422795 24.89598831 13.80493668 28.3244089 15.12890625 31.75195312 C15.97229195 33.94755667 16.81476822 36.14350981 17.65625 38.33984375 C18.04695679 39.35690903 18.43766357 40.3739743 18.84020996 41.42185974 C21.16290937 47.54723127 23.21444973 53.69673702 25 60 C21.89586155 57.13534046 20.86013529 54.42890622 19.4375 50.4375 C17.89306798 45.79518917 17.89306798 45.79518917 15 42 C14.40234375 40.01171875 14.40234375 40.01171875 13.9375 37.6875 C13.69193359 36.48867187 13.69193359 36.48867187 13.44140625 35.265625 C13.29574219 34.51796875 13.15007812 33.7703125 13 33 C12.79375 31.989375 12.5875 30.97875 12.375 29.9375 C12.25125 29.298125 12.1275 28.65875 12 28 C11.34 28 10.68 28 10 28 C9.81824219 27.34773438 9.63648438 26.69546875 9.44921875 26.0234375 C8.02026917 21.05508972 6.41205577 16.59439194 4 12 C4 11.34 4 10.68 4 10 C2.02 10 0.04 10 -2 10 C-2 10.99 -2 11.98 -2 13 C-2.99 13.33 -3.98 13.66 -5 14 C-4.54636829 12.41531323 -4.08688548 10.83230076 -3.625 9.25 C-3.36976563 8.36828125 -3.11453125 7.4865625 -2.8515625 6.578125 C-2.0790066 4.23919428 -1.16374324 2.16557438 0 0 Z " fill="#D83A31" transform="translate(217,125)"/>
<path d="M0 0 C5.61 0 11.22 0 17 0 C17 6.27 17 12.54 17 19 C16.67 19 16.34 19 16 19 C16 13.06 16 7.12 16 1 C11.38 1 6.76 1 2 1 C2 11.56 2 22.12 2 33 C11.57 33 21.14 33 31 33 C31 33.33 31 33.66 31 34 C26.9247366 34.76776475 23.08994553 35.11902034 18.9453125 35.09765625 C17.94516113 35.09515869 16.94500977 35.09266113 15.91455078 35.09008789 C14.03872314 35.07643188 14.03872314 35.07643188 12.125 35.0625 C6.123125 35.0315625 6.123125 35.0315625 0 35 C0 23.45 0 11.9 0 0 Z " fill="#CC3C35" transform="translate(109,270)"/>
<path d="M0 0 C0.33 0 0.66 0 1 0 C1 11.55 1 23.1 1 35 C6.878125 34.7834375 6.878125 34.7834375 12.875 34.5625 C14.69620361 34.49784546 14.69620361 34.49784546 16.55419922 34.43188477 C23.06904843 34.18115054 29.52272522 33.74667312 36 33 C35.505 33.99 35.505 33.99 35 35 C27.52595653 37.22731201 20.31801243 37.30190527 12.5625 37.25 C11.37978516 37.25773437 10.19707031 37.26546875 8.97851562 37.2734375 C7.85251953 37.27085937 6.72652344 37.26828125 5.56640625 37.265625 C4.03415405 37.26224121 4.03415405 37.26224121 2.47094727 37.25878906 C0 37 0 37 -2 35 C-2.11676537 32.42531414 -2.11390467 29.9702365 -2.01171875 27.40234375 C-1.98906448 26.65287979 -1.96641022 25.90341583 -1.94306946 25.13124084 C-1.89309211 23.54656176 -1.83812399 21.96203343 -1.77856445 20.37768555 C-1.68774573 17.94408456 -1.61309513 15.5103927 -1.54101562 13.07617188 C-1.49053469 11.53903096 -1.43913376 10.00191993 -1.38671875 8.46484375 C-1.36373215 7.73257065 -1.34074554 7.00029755 -1.31706238 6.24583435 C-1.11618592 1.11618592 -1.11618592 1.11618592 0 0 Z " fill="#220000" transform="translate(108,270)"/>
<path d="M0 0 C0.66 0 1.32 0 2 0 C2.33 0.66 2.66 1.32 3 2 C3.99 2 4.98 2 6 2 C6 2.66 6 3.32 6 4 C7.65 4 9.3 4 11 4 C11 5.32 11 6.64 11 8 C11.66 8.33 12.32 8.66 13 9 C12.67 9.66 12.34 10.32 12 11 C12.66 11.33 13.32 11.66 14 12 C14.625 14.0625 14.625 14.0625 15 16 C15.99 16 16.98 16 18 16 C18.33 15.34 18.66 14.68 19 14 C19.99 14.33 20.98 14.66 22 15 C21.34 17.31 20.68 19.62 20 22 C15.38285495 18.71125143 11.0977602 15.22945241 6.9375 11.375 C3.15122247 7.90473327 -0.41474708 5.29262646 -5 3 C-4.360625 2.690625 -3.72125 2.38125 -3.0625 2.0625 C-1.06389179 1.1654837 -1.06389179 1.1654837 0 0 Z " fill="#48BBCB" transform="translate(387,310)"/>
<path d="M0 0 C7.53958867 -0.30611864 13.23063786 -0.38468107 20 3 C22.32189536 3.4054103 24.65515344 3.76072994 27 4 C23.3757733 6.41615113 20.74381484 6.26558244 16.5625 6.1875 C15.85544922 6.18105469 15.14839844 6.17460937 14.41992188 6.16796875 C8.25390203 6.07900904 2.13231875 5.65039744 -4 5 C-3.67 4.34 -3.34 3.68 -3 3 C-2.34 3 -1.68 3 -1 3 C-0.67 2.01 -0.34 1.02 0 0 Z " fill="#44ADBB" transform="translate(386,279)"/>
<path d="M0 0 C0.33 0 0.66 0 1 0 C1.01030746 0.5902446 1.02061493 1.1804892 1.03123474 1.78862 C1.13949106 7.93690642 1.25407326 14.08505196 1.37231445 20.2331543 C1.41560199 22.5270696 1.45728142 24.82101583 1.49731445 27.11499023 C1.55516666 30.41399454 1.61881822 33.71284401 1.68359375 37.01171875 C1.70030624 38.03585373 1.71701874 39.05998871 1.73423767 40.11515808 C1.75418289 41.07577652 1.77412811 42.03639496 1.79467773 43.02612305 C1.81022202 43.86773483 1.8257663 44.70934662 1.84178162 45.57646179 C2.00800615 48.12263557 2.44625552 50.51169671 3 53 C-0.80984844 50.22920113 -1.06840752 46.37131855 -2 42 C-2.33 43.32 -2.66 44.64 -3 46 C-3.66 46 -4.32 46 -5 46 C-4.84660156 44.88625 -4.69320312 43.7725 -4.53515625 42.625 C-3.92693771 37.75925164 -3.66688586 32.89607197 -3.4375 28 C-3.39431641 27.12988281 -3.35113281 26.25976562 -3.30664062 25.36328125 C-3.20175782 23.24231781 -3.10049925 21.12117567 -3 19 C-2.67 19 -2.34 19 -2 19 C-1.67 20.98 -1.34 22.96 -1 25 C-0.67 16.75 -0.34 8.5 0 0 Z " fill="#300000" transform="translate(178,234)"/>
<path d="M0 0 C0.66 0.33 1.32 0.66 2 1 C0.125 5.875 0.125 5.875 -1 7 C-1.16041193 10.10085221 -1.25963402 13.18187579 -1.31640625 16.28515625 C-1.33718735 17.21597519 -1.35796844 18.14679413 -1.37937927 19.1058197 C-1.44497931 22.09130182 -1.50380802 25.07687484 -1.5625 28.0625 C-1.6056753 30.08138976 -1.64928925 32.1002702 -1.69335938 34.11914062 C-1.80067129 39.07933297 -1.90190888 44.03961709 -2 49 C-7.61 49 -13.22 49 -19 49 C-19 35.47 -19 21.94 -19 8 C-18.67 8 -18.34 8 -18 8 C-17.67 21.2 -17.34 34.4 -17 48 C-12.38 48 -7.76 48 -3 48 C-3 33.81 -3 19.62 -3 5 C-2.34 5 -1.68 5 -1 5 C-0.67 3.35 -0.34 1.7 0 0 Z " fill="#C13A31" transform="translate(372,163)"/>
<path d="M0 0 C1.98 0.66 3.96 1.32 6 2 C6.33 3.65 6.66 5.3 7 7 C7.99 6.67 8.98 6.34 10 6 C10.33 6.66 10.66 7.32 11 8 C9.02 8.99 9.02 8.99 7 10 C7.33 10.99 7.66 11.98 8 13 C11.99996286 11.66667905 12.83782337 9.5042173 15 6 C17.97 6.33 20.94 6.66 24 7 C24 7.66 24 8.32 24 9 C18.27696683 13.29227488 14.15686181 14.71568618 7 14 C4.12857716 12.60703305 1.50267547 10.98263901 -1 9 C-1 8.67 -1 8.34 -1 8 C0.65 7.67 2.3 7.34 4 7 C4.23204861 4.76047326 4.23204861 4.76047326 2 2.9375 C1.34 2.298125 0.68 1.65875 0 1 C0 0.67 0 0.34 0 0 Z " fill="#38AABC" transform="translate(376,402)"/>
<path d="M0 0 C11.22 0 22.44 0 34 0 C35.60670684 3.21341369 34.82510855 6.62958968 34.5625 10.125 C34.51029297 10.87910156 34.45808594 11.63320312 34.40429688 12.41015625 C34.27454996 14.2737937 34.13792512 16.13694996 34 18 C33.67 18 33.34 18 33 18 C33 12.72 33 7.44 33 2 C22.44 2 11.88 2 1 2 C1 7.28 1 12.56 1 18 C0.67 18 0.34 18 0 18 C0 12.06 0 6.12 0 0 Z " fill="#B12B21" transform="translate(76,194)"/>
<path d="M0 0 C1.77155654 0.11429397 3.54226229 0.24183037 5.3125 0.375 C6.79169922 0.47941406 6.79169922 0.47941406 8.30078125 0.5859375 C11 1 11 1 14 3 C11.35261084 4.4606285 10.10551666 5 7 5 C7.14095064 6.6254308 7.28792087 8.25034051 7.4375 9.875 C7.51871094 10.77992188 7.59992188 11.68484375 7.68359375 12.6171875 C7.86989285 15.01110861 7.86989285 15.01110861 9 17 C9.825 17.33 10.65 17.66 11.5 18 C14 19 14 19 15 21 C13.68 21 12.36 21 11 21 C11 20.34 11 19.68 11 19 C10.360625 18.896875 9.72125 18.79375 9.0625 18.6875 C8.0415625 18.3471875 8.0415625 18.3471875 7 18 C6.67 17.01 6.34 16.02 6 15 C5.01 14.67 4.02 14.34 3 14 C3 10.37 3 6.74 3 3 C2.34 3 1.68 3 1 3 C0.67 2.01 0.34 1.02 0 0 Z " fill="#7CE9F2" transform="translate(407,305)"/>
<path d="M0 0 C2.50037734 2.17424117 3.43628586 3.73045798 4 7 C4.66 7 5.32 7 6 7 C6.50588147 8.91512272 7.00448391 10.83216922 7.5 12.75 C7.7784375 13.81734375 8.056875 14.8846875 8.34375 15.984375 C9 19 9 19 9 23 C9.66 23 10.32 23 11 23 C11.66 26.63 12.32 30.26 13 34 C11.515 34.495 11.515 34.495 10 35 C9.67 32.36 9.34 29.72 9 27 C8.01 27 7.02 27 6 27 C3.91013908 20.47066053 2.90491248 15.84429703 4 9 C2.69972025 6.30480288 2.69972025 6.30480288 1 4 C0.3125 1.6875 0.3125 1.6875 0 0 Z " fill="#67DEEA" transform="translate(372,343)"/>
<path d="M0 0 C0.97591583 3.38317487 0.85856655 5.5657338 0 9 C-0.66 9 -1.32 9 -2 9 C-2 10.98 -2 12.96 -2 15 C-2.66 15 -3.32 15 -4 15 C-4.144375 15.721875 -4.28875 16.44375 -4.4375 17.1875 C-4.95833333 19.79166667 -5.47916667 22.39583333 -6 25 C-6.66 25 -7.32 25 -8 25 C-7.98646484 26.14275391 -7.98646484 26.14275391 -7.97265625 27.30859375 C-8.21074928 35.60044224 -10.25349458 40.05844348 -16 46 C-17 44 -17 44 -16.47486877 42.08908081 C-16.17064499 41.31186676 -15.8664212 40.53465271 -15.55297852 39.73388672 C-15.2125502 38.85312469 -14.87212189 37.97236267 -14.52137756 37.06491089 C-13.95585426 35.63672531 -13.95585426 35.63672531 -13.37890625 34.1796875 C-13.00015854 33.20589142 -12.62141083 32.23209534 -12.23118591 31.22879028 C-11.01547436 28.10800057 -9.78912179 24.99151553 -8.5625 21.875 C-7.73822999 19.76459708 -6.91465306 17.65392332 -6.09179688 15.54296875 C-4.06924065 10.35880536 -2.03792404 5.17814006 0 0 Z " fill="#D1392F" transform="translate(205,155)"/>
<path d="M0 0 C0.66 0 1.32 0 2 0 C3.24076077 1.50197356 4.47921817 3.00612315 5.69140625 4.53125 C7.25534961 6.28660135 8.80260134 7.18614864 11 8 C11 8.99 11 9.98 11 11 C11.99 11 12.98 11 14 11 C14.99 14.3 15.98 17.6 17 21 C16.01 21 15.02 21 14 21 C14 19.68 14 18.36 14 17 C12.68 17 11.36 17 10 17 C8.18830483 15.04894366 7.10993296 13.25651023 6.0625 10.8125 C5.14026135 8.79253008 5.14026135 8.79253008 2.875 8.25 C2.25625 8.1675 1.6375 8.085 1 8 C0.67 5.36 0.34 2.72 0 0 Z " fill="#6ADFEC" transform="translate(385,377)"/>
<path d="M0 0 C3.27330336 1.63665168 3.66830496 5.20177135 4.78515625 8.5 C5.17688271 9.62631836 5.17688271 9.62631836 5.57652283 10.77539062 C6.41211758 13.18125856 7.23779068 15.59038113 8.0625 18 C8.89229181 20.40905753 9.72414821 22.81736614 10.55918884 25.22460938 C11.079011 26.72473283 11.59549937 28.22601625 12.1084137 29.72851562 C13.08580236 33.12913969 13.08580236 33.12913969 15 36 C16.32 32.37 17.64 28.74 19 25 C19.33 25 19.66 25 20 25 C19.80743982 34.17286652 19.80743982 34.17286652 16.4375 37.625 C15.2309375 38.305625 15.2309375 38.305625 14 39 C11.70715382 36.70715382 11.3203846 35.27066244 10.4375 32.1875 C10.18871094 31.33542969 9.93992187 30.48335937 9.68359375 29.60546875 C9.0216976 27.08269884 8.48304719 24.56245031 8 22 C7.34 22 6.68 22 6 22 C5.51933465 20.10454608 5.04053257 18.20861961 4.5625 16.3125 C4.29566406 15.25675781 4.02882813 14.20101562 3.75390625 13.11328125 C3.10102068 10.4171683 2.52058807 7.7242424 2 5 C1.34 5 0.68 5 0 5 C0 3.35 0 1.7 0 0 Z " fill="#D23A31" transform="translate(275,135)"/>
<path d="M0 0 C17.0521542 1.0521542 17.0521542 1.0521542 22 6 C20.02 6.33 18.04 6.66 16 7 C16 6.34 16 5.68 16 5 C12.7 4.01 9.4 3.02 6 2 C6 3.32 6 4.64 6 6 C6.66 6.33 7.32 6.66 8 7 C9.10546875 8.92578125 9.10546875 8.92578125 10.1875 11.3125 C10.55230469 12.09238281 10.91710937 12.87226563 11.29296875 13.67578125 C12.07807525 16.2566562 11.89937661 17.49663962 11 20 C9.99515796 18.04414675 8.99626195 16.08523763 8 14.125 C7.443125 13.03445313 6.88625 11.94390625 6.3125 10.8203125 C5 8 5 8 5 6 C4.01 5.67 3.02 5.34 2 5 C0.8125 2.4375 0.8125 2.4375 0 0 Z " fill="#5FC1C2" transform="translate(344,324)"/>
<path d="M0 0 C0.66 0.33 1.32 0.66 2 1 C0.125 5.875 0.125 5.875 -1 7 C-0.01 8.32 0.98 9.64 2 11 C0.41701974 11.4803318 -1.16639978 11.95921612 -2.75 12.4375 C-4.07257813 12.83775391 -4.07257813 12.83775391 -5.421875 13.24609375 C-7.60565835 13.88468494 -9.78835498 14.46775833 -12 15 C-11.35466349 9.40708357 -6.78471691 5.55229282 -2.6875 2.125 C-1.800625 1.42375 -0.91375 0.7225 0 0 Z " fill="#43B2C7" transform="translate(379,274)"/>
<path d="M0 0 C4.62 0 9.24 0 14 0 C14 0.66 14 1.32 14 2 C14.33 2.99 14.66 3.98 15 5 C13.27478537 5.39278091 11.54453752 5.76349151 9.8125 6.125 C8.36810547 6.43824219 8.36810547 6.43824219 6.89453125 6.7578125 C3.65447747 7.02891012 1.88453715 6.42381175 -1 5 C-0.67 3.35 -0.34 1.7 0 0 Z " fill="#AEF6FB" transform="translate(395,268)"/>
<path d="M0 0 C0.33 0 0.66 0 1 0 C1 6.27 1 12.54 1 19 C12.55 19 24.1 19 36 19 C36 19.33 36 19.66 36 20 C28.41 20 20.82 20 13 20 C13 20.66 13 21.32 13 22 C11.60427948 22.02736707 10.20839779 22.04655989 8.8125 22.0625 C8.03519531 22.07410156 7.25789062 22.08570313 6.45703125 22.09765625 C4 22 4 22 -1 21 C-0.67 14.07 -0.34 7.14 0 0 Z " fill="#C12F23" transform="translate(145,141)"/>
<path d="M0 0 C4.78718692 -0.02471738 9.5743367 -0.04286825 14.36157227 -0.05493164 C15.99015958 -0.05996065 17.61874237 -0.06678465 19.24731445 -0.07543945 C21.58806472 -0.08756769 23.9287553 -0.09324263 26.26953125 -0.09765625 C26.99775589 -0.10281754 27.72598053 -0.10797882 28.47627258 -0.11329651 C31.59602288 -0.11364279 34.01633188 0.00544396 37 1 C36.67 2.32 36.34 3.64 36 5 C33.69 5.33 31.38 5.66 29 6 C28.67 5.01 28.34 4.02 28 3 C14.14 2.505 14.14 2.505 0 2 C0 1.34 0 0.68 0 0 Z " fill="#61DBE9" transform="translate(380,276)"/>
<path d="M0 0 C0.33 0.99 0.66 1.98 1 3 C0.01 4.485 0.01 4.485 -1 6 C-1.66 6 -2.32 6 -3 6 C-3 6.66 -3 7.32 -3 8 C-8.93891422 10.5915262 -13.54107286 11.40368295 -20 11 C-20 11.66 -20 12.32 -20 13 C-21.32 12.67 -22.64 12.34 -24 12 C-24 11.01 -24 10.02 -24 9 C-27.465 7.02 -27.465 7.02 -31 5 C-30.67 4.01 -30.34 3.02 -30 2 C-29.46632812 2.433125 -28.93265625 2.86625 -28.3828125 3.3125 C-23.33820125 7.08286688 -19.70791345 8.82437607 -13.359375 8.390625 C-8.35799086 7.56258127 -5.06047341 6.16923991 -1.5625 2.3125 C-1.046875 1.549375 -0.53125 0.78625 0 0 Z " fill="#E33C33" transform="translate(227,280)"/>
<path d="M0 0 C2.50670488 2.50670488 2.48472791 3.97321534 3 7.4375 C3.54824376 11.11367023 3.89953191 12.84929786 6 16 C6.125 18.6875 6.125 18.6875 6 21 C6.99 21.33 7.98 21.66 9 22 C11.5859495 24.08865152 12.4376049 25.73810844 13 29 C10.13302508 27.71480435 8.02392288 26.42870746 6 24 C6 23.34 6 22.68 6 22 C5.34 22 4.68 22 4 22 C2 14.375 2 14.375 2 11 C1.34 11 0.68 11 0 11 C0 7.37 0 3.74 0 0 Z " fill="#88ECF5" transform="translate(381,355)"/>
<path d="M0 0 C4.50884026 2.31883213 6.93906776 5.06451569 10 9 C9.67 9.66 9.34 10.32 9 11 C8.01 11 7.02 11 6 11 C6 11.66 6 12.32 6 13 C3.69 13.66 1.38 14.32 -1 15 C-1 14.34 -1 13.68 -1 13 C-1.90492188 13.05220703 -1.90492188 13.05220703 -2.828125 13.10546875 C-3.62734375 13.13253906 -4.4265625 13.15960938 -5.25 13.1875 C-6.03890625 13.22230469 -6.8278125 13.25710938 -7.640625 13.29296875 C-10.51712968 12.93578688 -11.84576769 11.88248282 -14 10 C-12.79601562 10.0721875 -11.59203125 10.144375 -10.3515625 10.21875 C-8.77604351 10.31253089 -7.20052257 10.4062792 -5.625 10.5 C-4.8309375 10.54769531 -4.036875 10.59539062 -3.21875 10.64453125 C0.88776304 10.90355333 0.88776304 10.90355333 5 11 C4.38722388 8.03824877 3.74627478 6.61941217 2 4 C1.34 4 0.68 4 0 4 C0 2.68 0 1.36 0 0 Z " fill="#7CE9F2" transform="translate(436,316)"/>
<path d="M0 0 C3.41801111 5.12701666 4.14911509 10.71597006 3.9375 16.8125 C3.84553584 19.90682362 3.88095398 20.79662972 5.5 23.5625 C5.995 24.036875 6.49 24.51125 7 25 C6.67 25.33 6.34 25.66 6 26 C5.92820036 27.51928038 5.91607993 29.04167482 5.9375 30.5625 C5.94652344 31.38878906 5.95554687 32.21507812 5.96484375 33.06640625 C5.97644531 33.70449219 5.98804688 34.34257812 6 35 C1.37856295 28.06784443 1.43630227 20.15537454 0.875 12.0625 C0.78863281 10.90169922 0.70226562 9.74089844 0.61328125 8.54492188 C0.40232597 5.69702554 0.19809534 2.84881487 0 0 Z " fill="#368C99" transform="translate(360,362)"/>
<path d="M0 0 C0.33 0 0.66 0 1 0 C1 11.22 1 22.44 1 34 C0.67 34 0.34 34 0 34 C-0.09796875 33.06800781 -0.1959375 32.13601563 -0.296875 31.17578125 C-1.32601745 22.40145471 -3.10058663 14.38445078 -6 6 C-6.33 5.01 -6.66 4.02 -7 3 C-6.01 3 -5.02 3 -4 3 C-3.01 6.96 -2.02 10.92 -1 15 C-0.67 10.05 -0.34 5.1 0 0 Z " fill="#1B0000" transform="translate(177,234)"/>
<path d="M0 0 C6.27 0 12.54 0 19 0 C19.33 0.99 19.66 1.98 20 3 C19.01 3.33 18.02 3.66 17 4 C17 3.34 17 2.68 17 2 C13.7 2.33 10.4 2.66 7 3 C6.34 4.65 5.68 6.3 5 8 C2.5 5.6875 2.5 5.6875 0 3 C0 2.01 0 1.02 0 0 Z " fill="#E03F36" transform="translate(322,125)"/>
<path d="M0 0 C0.99 0 1.98 0 3 0 C4.2238892 2.44777839 4.016364 3.73390541 3.75 6.4375 C3.68296875 7.21996094 3.6159375 8.00242187 3.546875 8.80859375 C2.91025468 11.35962232 1.99028875 12.33607581 0 14 C-0.5345256 12.75579353 -1.05208611 11.50429064 -1.5625 10.25 C-1.85253906 9.55390625 -2.14257812 8.8578125 -2.44140625 8.140625 C-3.09164134 5.648815 -2.91781583 4.38732424 -2 2 C-1.34 1.34 -0.68 0.68 0 0 Z " fill="#55D2E3" transform="translate(357,332)"/>
<path d="M0 0 C2.20770805 -0.08165496 4.41630425 -0.13948488 6.625 -0.1875 C7.85476563 -0.22230469 9.08453125 -0.25710938 10.3515625 -0.29296875 C15.12520305 0.09035356 18.47858127 1.47858127 21.875 4.875 C23.26150878 7.49396103 23.46128534 9.07852621 23 12 C22.01 12.66 21.02 13.32 20 14 C20.33 12.68 20.66 11.36 21 10 C18.525 9.505 18.525 9.505 16 9 C16.66 8.34 17.32 7.68 18 7 C18 6.01 18 5.02 18 4 C14.01606389 2.15433468 10.55623317 1.63977171 6.1875 1.375 C5.02605469 1.30023438 3.86460937 1.22546875 2.66796875 1.1484375 C1.78753906 1.09945313 0.90710938 1.05046875 0 1 C0 0.67 0 0.34 0 0 Z " fill="#83D0D5" transform="translate(396,267)"/>
<path d="M0 0 C0.74958984 0.00451172 1.49917969 0.00902344 2.27148438 0.01367188 C4.11852383 0.02543646 5.96552213 0.04337135 7.8125 0.0625 C7.8125 2.0425 7.8125 4.0225 7.8125 6.0625 C6.8225 6.5575 6.8225 6.5575 5.8125 7.0625 C6.1425 5.4125 6.4725 3.7625 6.8125 2.0625 C1.5325 2.0625 -3.7475 2.0625 -9.1875 2.0625 C-9.5175 3.7125 -9.8475 5.3625 -10.1875 7.0625 C-10.82187344 8.7417238 -11.48039322 10.41258418 -12.1875 12.0625 C-12.5175 12.0625 -12.8475 12.0625 -13.1875 12.0625 C-12.3125 4.4375 -12.3125 4.4375 -11.1875 1.0625 C-7.42449626 -0.19183458 -3.91539091 -0.04445422 0 0 Z " fill="#2A0303" transform="translate(310.1875,138.9375)"/>
<path d="M0 0 C1.32 0 2.64 0 4 0 C4.33 2.31 4.66 4.62 5 7 C6.65 7 8.3 7 10 7 C10 7.33 10 7.66 10 8 C2.48130488 8.59672183 -1.74031045 7.14352972 -8 3 C-5.50935112 2.31292445 -3.62113708 2 -1 2 C-0.67 1.34 -0.34 0.68 0 0 Z " fill="#40B4C5" transform="translate(430,344)"/>
<path d="M0 0 C5.61 0 11.22 0 17 0 C17.66 2.31 18.32 4.62 19 7 C18.34 7 17.68 7 17 7 C16.79632813 6.35546875 16.59265625 5.7109375 16.3828125 5.046875 C15.1332065 2.68846128 15.1332065 2.68846128 12.1796875 2.390625 C11.08914063 2.34421875 9.99859375 2.2978125 8.875 2.25 C7.23144531 2.16492188 7.23144531 2.16492188 5.5546875 2.078125 C4.71164062 2.05234375 3.86859375 2.0265625 3 2 C3.33 4.97 3.66 7.94 4 11 C1.55160412 7.32740617 0 4.45351799 0 0 Z " fill="#D23E36" transform="translate(256,125)"/>
<path d="M0 0 C0.33 0.66 0.66 1.32 1 2 C1.99 2 2.98 2 4 2 C4.66 1.34 5.32 0.68 6 0 C6.99 0.33 7.98 0.66 9 1 C8.32829194 4.8063457 7.27253436 8.35206816 6 12 C3 11 3 11 2.05078125 9.2578125 C1.80714844 8.55398437 1.56351562 7.85015625 1.3125 7.125 C1.06113281 6.42632812 0.80976563 5.72765625 0.55078125 5.0078125 C0 3 0 3 0 0 Z " fill="#F0392B" transform="translate(285,200)"/>
<path d="M0 0 C0.33 0 0.66 0 1 0 C1.33923576 2.35344806 1.67150534 4.7075484 2 7.0625 C2.09539062 7.71927734 2.19078125 8.37605469 2.2890625 9.05273438 C2.88887674 13.40138763 3.09127093 17.61329071 3 22 C2.34 22.33 1.68 22.66 1 23 C0.34786708 25.02463255 0.34786708 25.02463255 0 27 C-0.66 27 -1.32 27 -2 27 C-1.84660156 25.88625 -1.69320312 24.7725 -1.53515625 23.625 C-0.92693771 18.75925164 -0.66688586 13.89607197 -0.4375 9 C-0.39431641 8.12988281 -0.35113281 7.25976562 -0.30664062 6.36328125 C-0.20175782 4.24231781 -0.10049925 2.12117567 0 0 Z " fill="#3F0705" transform="translate(175,253)"/>
<path d="M0 0 C0.77601563 0.34933594 1.55203125 0.69867188 2.3515625 1.05859375 C10.8466068 4.63705513 17.75224448 5.84748829 27 6 C26.67 6.99 26.34 7.98 26 9 C23.79095369 8.91224337 21.58271407 8.80405633 19.375 8.6875 C18.14523438 8.62949219 16.91546875 8.57148438 15.6484375 8.51171875 C11.83108134 7.97630798 9.33996269 6.86941797 6 5 C4.6078125 4.505 4.6078125 4.505 3.1875 4 C2.465625 3.67 1.74375 3.34 1 3 C0.67 2.01 0.34 1.02 0 0 Z " fill="#270101" transform="translate(191,299)"/>
<path d="M0 0 C0.33 0 0.66 0 1 0 C1 5.61 1 11.22 1 17 C2.959375 16.855625 4.91875 16.71125 6.9375 16.5625 C8.03964844 16.48128906 9.14179688 16.40007812 10.27734375 16.31640625 C12.91109903 16.29581916 12.91109903 16.29581916 14 15 C15.99958364 14.95919217 18.00045254 14.95745644 20 15 C16.57701818 18.42298182 11.93605811 18.91199736 7.25 19.125 C4.83297416 19.125 2.41609388 19.06711372 0 19 C0 12.73 0 6.46 0 0 Z " fill="#290000" transform="translate(126,270)"/>
<path d="M0 0 C3.11673969 1.55836984 3.41177748 4.12335659 4.625 7.3125 C5.07101562 8.46363281 5.51703125 9.61476563 5.9765625 10.80078125 C7 14 7 14 7 18 C6.01 18.33 5.02 18.66 4 19 C1.93679669 14.18585895 0.28644962 10.14065113 2 5 C1.34 5 0.68 5 0 5 C0 3.35 0 1.7 0 0 Z " fill="#78BFC1" transform="translate(399,362)"/>
<path d="M0 0 C2 1 2 1 2.74609375 2.75 C3.08833984 3.86375 3.08833984 3.86375 3.4375 5 C3.69273437 5.804375 3.94796875 6.60875 4.2109375 7.4375 C4.73697917 9.14583333 5.26302083 10.85416667 5.7890625 12.5625 C6.17191406 13.7690625 6.17191406 13.7690625 6.5625 15 C6.79066406 15.7425 7.01882813 16.485 7.25390625 17.25 C7.86256408 19.20102447 7.86256408 19.20102447 10 20 C10.33 18.35 10.66 16.7 11 15 C12.39195915 19.17587745 10.82323219 21.13474776 9 25 C6.811636 22.811636 6.28365452 21.4227652 5.2734375 18.53515625 C4.9640625 17.65279297 4.6546875 16.77042969 4.3359375 15.86132812 C4.01882813 14.93771484 3.70171875 14.01410156 3.375 13.0625 C2.88773437 11.68288086 2.88773437 11.68288086 2.390625 10.27539062 C0 3.38978795 0 3.38978795 0 0 Z " fill="#310201" transform="translate(281,147)"/>
<path d="M0 0 C0.33 0.99 0.66 1.98 1 3 C1.66 3 2.32 3 3 3 C3.66 4.98 4.32 6.96 5 9 C5.66 9 6.32 9 7 9 C7 10.65 7 12.3 7 14 C5.35 14.66 3.7 15.32 2 16 C1.34 10.72 0.68 5.44 0 0 Z " fill="#35A4B9" transform="translate(362,365)"/>
<path d="M0 0 C0.33 0 0.66 0 1 0 C1.14671745 3.49954984 1.23453588 6.99829703 1.3125 10.5 C1.3753418 11.97339844 1.3753418 11.97339844 1.43945312 13.4765625 C1.55107096 20.17363272 0.60550777 24.93725476 -4 30 C-6.8125 31.5 -6.8125 31.5 -9 32 C-8.67 31.34 -8.34 30.68 -8 30 C-7.34 30 -6.68 30 -6 30 C-5.731875 29.29875 -5.46375 28.5975 -5.1875 27.875 C-4 25 -4 25 -2.46875 22.4375 C-0.54939809 17.94539979 -0.4399446 13.96061225 -0.3125 9.125 C-0.27833984 8.24585938 -0.24417969 7.36671875 -0.20898438 6.4609375 C-0.1270686 4.30772295 -0.06184421 2.15388449 0 0 Z " fill="#1E4044" transform="translate(406,381)"/>
<path d="M0 0 C1.134375 0.020625 2.26875 0.04125 3.4375 0.0625 C-2.02411776 3.70357851 -6.81027299 4.3382005 -13.3125 4.3125 C-14.62734375 4.31765625 -15.9421875 4.3228125 -17.296875 4.328125 C-20.5625 4.0625 -20.5625 4.0625 -22.5625 2.0625 C-21.27472656 2.00191406 -19.98695313 1.94132812 -18.66015625 1.87890625 C-16.98175841 1.79451753 -15.30337364 1.7098687 -13.625 1.625 C-12.34979492 1.56602539 -12.34979492 1.56602539 -11.04882812 1.50585938 C-10.23994141 1.46396484 -9.43105469 1.42207031 -8.59765625 1.37890625 C-7.47435913 1.32391968 -7.47435913 1.32391968 -6.32836914 1.26782227 C-3.2426439 0.90903685 -3.87196625 0.06792923 0 0 Z " fill="#CB3A34" transform="translate(224.5625,300.9375)"/>
<path d="M0 0 C0 1.65 0 3.3 0 5 C-0.66 4.34 -1.32 3.68 -2 3 C-4.03060659 2.63105418 -4.03060659 2.63105418 -6.3515625 2.5859375 C-7.20234375 2.54726562 -8.053125 2.50859375 -8.9296875 2.46875 C-9.81914062 2.4378125 -10.70859375 2.406875 -11.625 2.375 C-12.5221875 2.33632812 -13.419375 2.29765625 -14.34375 2.2578125 C-16.5622927 2.16340643 -18.78082403 2.07783252 -21 2 C-21 1.34 -21 0.68 -21 0 C-18.62543835 -0.1963696 -16.25079981 -0.38231294 -13.875 -0.5625 C-13.20984375 -0.61857422 -12.5446875 -0.67464844 -11.859375 -0.73242188 C-7.7271959 -1.03625857 -4.05304259 -0.85227531 0 0 Z " fill="#2A0000" transform="translate(343,123)"/>
<path d="M0 0 C0.91201172 0.05865234 1.82402344 0.11730469 2.76367188 0.17773438 C3.69501953 0.20931641 4.62636719 0.24089844 5.5859375 0.2734375 C7.87760039 0.35570232 10.16274474 0.470518 12.45117188 0.61523438 C11.09180102 3.47582348 9.80596718 5.47451137 7.45117188 7.61523438 C7.78117187 5.63523438 8.11117188 3.65523437 8.45117188 1.61523438 C6.02965774 1.62125804 3.62089975 1.66867126 1.20117188 1.74023438 C0.17830078 1.73636719 0.17830078 1.73636719 -0.86523438 1.73242188 C-3.17522267 1.76303028 -3.17522267 1.76303028 -6.54882812 2.61523438 C-9.08127029 5.51471027 -9.08127029 5.51471027 -10.54882812 8.61523438 C-11.20882813 8.28523437 -11.86882812 7.95523438 -12.54882812 7.61523438 C-9.18183709 1.31364483 -7.14621469 -0.18190365 0 0 Z " fill="#D43C35" transform="translate(377.548828125,141.384765625)"/>
<path d="M0 0 C2.97 0 5.94 0 9 0 C9.33 1.32 9.66 2.64 10 4 C10.66 4 11.32 4 12 4 C11.67 5.98 11.34 7.96 11 10 C7.19364503 6.79239749 3.45436433 3.59253891 0 0 Z " fill="#49B2C0" transform="translate(411,336)"/>
<path d="M0 0 C0 0.99 0 1.98 0 3 C1.89611434 2.85786703 3.79188394 2.71113093 5.6875 2.5625 C6.74324219 2.48128906 7.79898438 2.40007812 8.88671875 2.31640625 C11.65086297 2.03548319 14.28945741 1.59843148 17 1 C14.15824999 4.26801251 11.84430704 4.84405859 7.59765625 5.203125 C2.5510152 5.29643732 -0.88047895 5.29561684 -5 2 C-2 0 -2 0 0 0 Z " fill="#360302" transform="translate(206,284)"/>
<path d="M0 0 C0.80244141 0.04833984 1.60488281 0.09667969 2.43164062 0.14648438 C3.68170898 0.2305957 3.68170898 0.2305957 4.95703125 0.31640625 C6.22450195 0.3947168 6.22450195 0.3947168 7.51757812 0.47460938 C9.60189424 0.60414314 11.68576307 0.74083802 13.76953125 0.87890625 C13.43953125 1.86890625 13.10953125 2.85890625 12.76953125 3.87890625 C6.16953125 3.54890625 -0.43046875 3.21890625 -7.23046875 2.87890625 C-7.23046875 2.21890625 -7.23046875 1.55890625 -7.23046875 0.87890625 C-4.35516794 -0.07952735 -2.93996944 -0.18765762 0 0 Z " fill="#3F0B08" transform="translate(377.23046875,139.12109375)"/>
<path d="M0 0 C0.99 0 1.98 0 3 0 C3.66 1.65 4.32 3.3 5 5 C4.34 5 3.68 5 3 5 C3.41444672 10.30747265 3.41444672 10.30747265 5.125 15.25 C6.27174109 17.54348218 5.7024811 18.60562778 5 21 C1.72676526 13.98157575 0.29409507 7.73470033 0 0 Z " fill="#EC392E" transform="translate(259,127)"/>
<path d="M0 0 C0.66 0.33 1.32 0.66 2 1 C1.68949346 7.05487762 -1.29617835 11.39325665 -5 16 C-5.99 16.66 -6.98 17.32 -8 18 C-7.71125 17.443125 -7.4225 16.88625 -7.125 16.3125 C-5.9586747 13.91505355 -4.9660119 11.48403061 -4 9 C-3.34 9 -2.68 9 -2 9 C-2.33 7.35 -2.66 5.7 -3 4 C-2.34 3.67 -1.68 3.34 -1 3 C-0.67 2.01 -0.34 1.02 0 0 Z " fill="#ED372C" transform="translate(171,275)"/>
<path d="M0 0 C0 2.31 0 4.62 0 7 C-0.66 6.360625 -1.32 5.72125 -2 5.0625 C-5.85690912 2.41087498 -8.37840033 2.31332879 -13 2 C-12.67 1.34 -12.34 0.68 -12 0 C-3.89667897 -1.46125461 -3.89667897 -1.46125461 0 0 Z " fill="#59D6E5" transform="translate(447,333)"/>
<path d="M0 0 C0.33 0 0.66 0 1 0 C1 2.64 1 5.28 1 8 C0.34 8 -0.32 8 -1 8 C-1.12375 8.680625 -1.2475 9.36125 -1.375 10.0625 C-3.44583513 19.79542512 -3.44583513 19.79542512 -7 23 C-4.97810834 15.21878058 -2.61369593 7.60227292 0 0 Z " fill="#330403" transform="translate(210,184)"/>
<path d="M0 0 C0.66 0 1.32 0 2 0 C3.03789581 1.64333504 4.03567924 3.31243867 5 5 C5.66 5.66 6.32 6.32 7 7 C7 7.99 7 8.98 7 10 C4.13132769 8.61735163 1.43975968 7.07851447 -1.25 5.375 C-1.95640625 4.92898438 -2.6628125 4.48296875 -3.390625 4.0234375 C-3.92171875 3.68570312 -4.4528125 3.34796875 -5 3 C-4.360625 2.690625 -3.72125 2.38125 -3.0625 2.0625 C-1.06389179 1.1654837 -1.06389179 1.1654837 0 0 Z " fill="#47ABB7" transform="translate(387,310)"/>
<path d="M0 0 C1.65 0 3.3 0 5 0 C5.33 1.32 5.66 2.64 6 4 C6.99 4 7.98 4 9 4 C9.33 3.34 9.66 2.68 10 2 C10.99 2.33 11.98 2.66 13 3 C12.34 5.31 11.68 7.62 11 10 C9.72390677 9.09066991 8.45434447 8.17217147 7.1875 7.25 C6.47980469 6.73953125 5.77210938 6.2290625 5.04296875 5.703125 C2.97022309 3.97517642 1.52624146 2.21473524 0 0 Z " fill="#44B0C5" transform="translate(396,322)"/>
<path d="M0 0 C0.99 0 1.98 0 3 0 C3 1.32 3 2.64 3 4 C3.66 4.33 4.32 4.66 5 5 C6.10546875 6.92578125 6.10546875 6.92578125 7.1875 9.3125 C7.55230469 10.09238281 7.91710937 10.87226563 8.29296875 11.67578125 C9.09127134 14.30003562 8.75464442 15.42797953 8 18 C6.66180502 15.3773768 5.3292849 12.75213401 4 10.125 C3.6184375 9.37863281 3.236875 8.63226563 2.84375 7.86328125 C2.4828125 7.14785156 2.121875 6.43242187 1.75 5.6953125 C1.41484375 5.03547363 1.0796875 4.37563477 0.734375 3.69580078 C0 2 0 2 0 0 Z " fill="#4EB8C2" transform="translate(347,326)"/>
<path d="M0 0 C5.28 0 10.56 0 16 0 C15.67 1.98 15.34 3.96 15 6 C14.67 4.68 14.34 3.36 14 2 C9.38 2.33 4.76 2.66 0 3 C0 2.01 0 1.02 0 0 Z " fill="#CC3F38" transform="translate(301,141)"/>
<path d="M0 0 C3.39417765 3.12621626 5.6062718 5.56541027 7 10 C7.66 10 8.32 10 9 10 C9.268125 9.21625 9.53625 8.4325 9.8125 7.625 C11 5 11 5 14 3 C13.63487253 5.7019433 13.30130763 7.58390852 11.6875 9.8125 C10 11 10 11 6 11 C1.96809198 8.03536175 1.09948516 4.76443568 0 0 Z " fill="#D73A30" transform="translate(335,237)"/>
<path d="M0 0 C0.99435406 3.09354597 0.87840996 4.90279155 0 8 C1.93719378 8.05406122 3.87481921 8.09282025 5.8125 8.125 C6.89144531 8.14820313 7.97039062 8.17140625 9.08203125 8.1953125 C12.19402868 8.23023717 12.19402868 8.23023717 15 6 C14.67 7.32 14.34 8.64 14 10 C8.39 10 2.78 10 -3 10 C-2.25386143 6.26930717 -1.46826597 3.42595393 0 0 Z " fill="#D33E34" transform="translate(187,202)"/>
<path d="M0 0 C0.33 0 0.66 0 1 0 C1.12086218 6.43255401 0.82351864 12.61773055 0 19 C-0.66 19 -1.32 19 -2 19 C-2.33 15.7 -2.66 12.4 -3 9 C-2.34 8.67 -1.68 8.34 -1 8 C-0.53476937 6.10466658 -0.53476937 6.10466658 -0.375 3.9375 C-0.25125 2.638125 -0.1275 1.33875 0 0 Z " fill="#7CDFE7" transform="translate(405,380)"/>
<path d="M0 0 C0.99 0 1.98 0 3 0 C4.60546875 2.1875 4.60546875 2.1875 6.1875 5 C6.71730469 5.928125 7.24710937 6.85625 7.79296875 7.8125 C8.19128906 8.534375 8.58960938 9.25625 9 10 C7.68 9.67 6.36 9.34 5 9 C4.67 7.35 4.34 5.7 4 4 C3.34 4 2.68 4 2 4 C1.67 7.3 1.34 10.6 1 14 C0.67 14 0.34 14 0 14 C0 9.38 0 4.76 0 0 Z " fill="#320201" transform="translate(300,218)"/>
<path d="M0 0 C5.31027254 1.46032495 9.46330032 3.98320986 14 7 C13.34 7.66 12.68 8.32 12 9 C7.32307692 7.52307692 7.32307692 7.52307692 5.6875 4.875 C5.3471875 3.946875 5.3471875 3.946875 5 3 C3.35 3 1.7 3 0 3 C0 2.01 0 1.02 0 0 Z " fill="#90D8DA" transform="translate(422,308)"/>
<path d="M0 0 C-0.33 0.66 -0.66 1.32 -1 2 C1.31 2 3.62 2 6 2 C6.33 3.65 6.66 5.3 7 7 C5.68 6.67 4.36 6.34 3 6 C3 5.34 3 4.68 3 4 C-1.455 3.01 -1.455 3.01 -6 2 C-6 1.34 -6 0.68 -6 0 C-2.25 -1.125 -2.25 -1.125 0 0 Z " fill="#4EA9B1" transform="translate(375,305)"/>
<path d="M0 0 C0.33 1.32 0.66 2.64 1 4 C0.34 4 -0.32 4 -1 4 C-0.01 5.32 0.98 6.64 2 8 C-0.64 8.66 -3.28 9.32 -6 10 C-4.80655062 5.22620248 -3.20354235 3.61425291 0 0 Z " fill="#4799A6" transform="translate(373,279)"/>
<path d="M0 0 C1.25127906 3.54667178 0.72285053 5.72253438 -0.4375 9.25 C-0.72496094 10.14203125 -1.01242187 11.0340625 -1.30859375 11.953125 C-1.53675781 12.62859375 -1.76492188 13.3040625 -2 14 C-3.98 14 -5.96 14 -8 14 C-8 12.35 -8 10.7 -8 9 C-6.68 10.32 -5.36 11.64 -4 13 C-3.8453125 11.7315625 -3.8453125 11.7315625 -3.6875 10.4375 C-2.9171146 6.58557299 -1.63725486 3.55924969 0 0 Z " fill="#300503" transform="translate(295,199)"/>
<path d="M0 0 C0.33 0.99 0.66 1.98 1 3 C-1.88406243 6.40843742 -3.3708265 7.86591384 -7.8125 8.8125 C-9.3903125 8.9053125 -9.3903125 8.9053125 -11 9 C-10.67 8.01 -10.34 7.02 -10 6 C-8.02 6 -6.04 6 -4 6 C-4 5.01 -4 4.02 -4 3 C-2 1.3125 -2 1.3125 0 0 Z " fill="#50B2BE" transform="translate(447,342)"/>
<path d="M0 0 C2.31 0.33 4.62 0.66 7 1 C7.5625 2.9375 7.5625 2.9375 8 5 C7 6 7 6 3.4375 6.0625 C2.303125 6.041875 1.16875 6.02125 0 6 C0.33 5.34 0.66 4.68 1 4 C1.66 4 2.32 4 3 4 C2.01 2.68 1.02 1.36 0 0 Z " fill="#8BECF5" transform="translate(407,269)"/>
<path d="M0 0 C1 4 1 4 0 7 C-0.29519531 6.35546875 -0.59039062 5.7109375 -0.89453125 5.046875 C-4.27597774 1.75953184 -8.14317276 2.32313475 -12.6875 2.25 C-13.58017578 2.22035156 -14.47285156 2.19070312 -15.39257812 2.16015625 C-17.59514277 2.08948573 -19.79665131 2.03678061 -22 2 C-22 1.67 -22 1.34 -22 1 C-14.74 0.67 -7.48 0.34 0 0 Z " fill="#2D0101" transform="translate(325,216)"/>
<path d="M0 0 C1.3274855 3.98245651 -0.00092171 6.44789543 -1.4375 10.1875 C-1.80198242 11.16879883 -1.80198242 11.16879883 -2.17382812 12.16992188 C-2.7743293 13.78303286 -3.38609203 15.3919435 -4 17 C-5.125 13.25 -5.125 13.25 -4 11 C-4.061875 9.88625 -4.12375 8.7725 -4.1875 7.625 C-4 4 -4 4 -2 1.5625 C-1.34 1.046875 -0.68 0.53125 0 0 Z " fill="#DB3D30" transform="translate(214,170)"/>
<path d="M0 0 C1.32 0 2.64 0 4 0 C6.32086397 5.324335 5.91457003 9.43842552 5 15 C4.34 14.67 3.68 14.34 3 14 C3 10.37 3 6.74 3 3 C2.34 3 1.68 3 1 3 C0.67 2.01 0.34 1.02 0 0 Z " fill="#72E6F1" transform="translate(407,305)"/>
<path d="M0 0 C6.6 0.33 13.2 0.66 20 1 C20 1.33 20 1.66 20 2 C18.74703125 2.06058594 17.4940625 2.12117188 16.203125 2.18359375 C14.55207276 2.26802256 12.90103165 2.35266939 11.25 2.4375 C10.425 2.47681641 9.6 2.51613281 8.75 2.55664062 C7.95078125 2.59853516 7.1515625 2.64042969 6.328125 2.68359375 C5.5949707 2.72025146 4.86181641 2.75690918 4.10644531 2.79467773 C1.98822395 3.00114785 0.0480544 3.43132086 -2 4 C-1.34 2.68 -0.68 1.36 0 0 Z " fill="#062025" transform="translate(376,300)"/>
<path d="M0 0 C0.33 0 0.66 0 1 0 C1 3.3 1 6.6 1 10 C0.34 10 -0.32 10 -1 10 C-1 10.99 -1 11.98 -1 13 C-3.5 15.1875 -3.5 15.1875 -6 17 C-6.66 16.67 -7.32 16.34 -8 16 C-6.8553125 14.824375 -6.8553125 14.824375 -5.6875 13.625 C-2.2953093 9.61604735 -1.22013702 5.01942546 0 0 Z " fill="#DA3A32" transform="translate(158,267)"/>
<path d="M0 0 C0.75 1.625 0.75 1.625 1 4 C-1.18507675 7.88458089 -3.74163303 10.97437353 -7 14 C-5.43181728 8.547001 -3.96189783 4.23513217 0 0 Z " fill="#E6392D" transform="translate(195,187)"/>
<path d="M0 0 C1.1875 1.625 1.1875 1.625 2 4 C0.625 7.25 0.625 7.25 -1 10 C-3 8 -3 8 -3.125 4.375 C-3.08375 3.26125 -3.0425 2.1475 -3 1 C-2.01 0.67 -1.02 0.34 0 0 Z " fill="#4ECAD9" transform="translate(359,336)"/>
<path d="M0 0 C1 2 1 2 0.00390625 5.0390625 C-0.47175781 6.22242188 -0.94742187 7.40578125 -1.4375 8.625 C-1.91058594 9.81351563 -2.38367188 11.00203125 -2.87109375 12.2265625 C-3.24363281 13.14179688 -3.61617188 14.05703125 -4 15 C-4.33 15 -4.66 15 -5 15 C-4.58997722 4.44191344 -4.58997722 4.44191344 0 0 Z " fill="#DC3B34" transform="translate(306,168)"/>
<path d="M0 0 C0.33 0 0.66 0 1 0 C1 3.3 1 6.6 1 10 C-0.32 10.33 -1.64 10.66 -3 11 C-3 11.99 -3 12.98 -3 14 C-3.66 14 -4.32 14 -5 14 C-5 11.69 -5 9.38 -5 7 C-2.525 7.99 -2.525 7.99 0 9 C0 6.03 0 3.06 0 0 Z " fill="#5AC6D3" transform="translate(405,390)"/>
<path d="M0 0 C1.32 0.33 2.64 0.66 4 1 C4 1.66 4 2.32 4 3 C4.66 3 5.32 3 6 3 C6 3.66 6 4.32 6 5 C6.66 5 7.32 5 8 5 C8.33 6.65 8.66 8.3 9 10 C7.68 9.67 6.36 9.34 5 9 C4.67 7.35 4.34 5.7 4 4 C3.34 4 2.68 4 2 4 C1.34 2.68 0.68 1.36 0 0 Z " fill="#5EDEEC" transform="translate(356,328)"/>
<path d="M0 0 C3.3 0.33 6.6 0.66 10 1 C10 1.66 10 2.32 10 3 C11.65 3 13.3 3 15 3 C15 3.33 15 3.66 15 4 C9.158256 4.35050464 5.1468192 4.16727335 0 1 C0 0.67 0 0.34 0 0 Z " fill="#3A8D9A" transform="translate(425,348)"/>
<path d="M0 0 C0 1.98 0 3.96 0 6 C-2.31 5.67 -4.62 5.34 -7 5 C-6 2 -6 2 -4.0625 0.8125 C-2 0 -2 0 0 0 Z " fill="#A5EBEE" transform="translate(395,268)"/>
<path d="M0 0 C1.0625 1.8125 1.0625 1.8125 2 4 C1.67 4.99 1.34 5.98 1 7 C0.34 7 -0.32 7 -1 7 C-1.28875 8.134375 -1.5775 9.26875 -1.875 10.4375 C-2.24625 11.613125 -2.6175 12.78875 -3 14 C-3.99 14.495 -3.99 14.495 -5 15 C-1.92482916 4.44191344 -1.92482916 4.44191344 0 0 Z " fill="#D63A33" transform="translate(211,140)"/>
<path d="M0 0 C0.33 0 0.66 0 1 0 C1.33 2.31 1.66 4.62 2 7 C1.01 7.33 0.02 7.66 -1 8 C-1 8.99 -1 9.98 -1 11 C-1.99 11.33 -2.98 11.66 -4 12 C-3.52309796 10.37433394 -3.04340334 8.74948689 -2.5625 7.125 C-2.29566406 6.22007812 -2.02882812 5.31515625 -1.75390625 4.3828125 C-1 2 -1 2 0 0 Z " fill="#D7372D" transform="translate(216,127)"/>
<path d="M0 0 C4.50884026 2.31883213 6.93906776 5.06451569 10 9 C9.67 9.66 9.34 10.32 9 11 C6.09197539 8.78071806 4.04687238 7.07030857 2 4 C1.34 4 0.68 4 0 4 C0 2.68 0 1.36 0 0 Z " fill="#80CCCC" transform="translate(436,316)"/>
<path d="M0 0 C0.33 0.99 0.66 1.98 1 3 C-0.70828921 5.10633718 -1.52148416 5.93801608 -4.26171875 6.29296875 C-5.06222656 6.25816406 -5.86273438 6.22335937 -6.6875 6.1875 C-7.49574219 6.16042969 -8.30398437 6.13335937 -9.13671875 6.10546875 C-9.75160156 6.07066406 -10.36648437 6.03585937 -11 6 C-8.61542052 4.41028035 -6.3695876 3.13258407 -3.8125 1.875 C-3.09707031 1.52179688 -2.38164062 1.16859375 -1.64453125 0.8046875 C-1.10183594 0.53914063 -0.55914062 0.27359375 0 0 Z " fill="#310403" transform="translate(233,298)"/>
<path d="M0 0 C0.99 0.33 1.98 0.66 3 1 C3 1.66 3 2.32 3 3 C3.66 3 4.32 3 5 3 C5 5.31 5 7.62 5 10 C2.08772731 6.71195019 0.50298788 4.40114397 0 0 Z " fill="#E63930" transform="translate(305,219)"/>
<path d="M0 0 C0.66 0 1.32 0 2 0 C2.99 2.97 3.98 5.94 5 9 C4.01 8.34 3.02 7.68 2 7 C2 6.01 2 5.02 2 4 C1.34 4 0.68 4 0 4 C-0.33 4.99 -0.66 5.98 -1 7 C-1.33 6.34 -1.66 5.68 -2 5 C-1.0625 2.375 -1.0625 2.375 0 0 Z " fill="#3A0303" transform="translate(217,165)"/>
<path d="M0 0 C1.32830615 3.98491845 0.23204404 5.40048548 -1.4375 9.1875 C-1.91058594 10.27417969 -2.38367188 11.36085937 -2.87109375 12.48046875 C-3.42990234 13.72763672 -3.42990234 13.72763672 -4 15 C-5.31538327 10.84228506 -4.34433068 8.1120703 -3 4 C-2.34 4 -1.68 4 -1 4 C-0.67 2.68 -0.34 1.36 0 0 Z " fill="#D83C33" transform="translate(312,152)"/>
<path d="M0 0 C3.39417765 3.12621626 5.6062718 5.56541027 7 10 C6.01 10.33 5.02 10.66 4 11 C4 9.35 4 7.7 4 6 C3.01 6 2.02 6 1 6 C0.67 4.02 0.34 2.04 0 0 Z " fill="#7EBCC0" transform="translate(392,352)"/>
<path d="M0 0 C1.85546875 0.25390625 1.85546875 0.25390625 4 1 C5.30078125 2.77734375 5.30078125 2.77734375 6.3125 4.9375 C6.65925781 5.64777344 7.00601562 6.35804688 7.36328125 7.08984375 C7.57339844 7.72019531 7.78351563 8.35054687 8 9 C7.67 9.66 7.34 10.32 7 11 C5.82750647 9.54634731 4.66216184 8.08692581 3.5 6.625 C2.52546875 5.40683594 2.52546875 5.40683594 1.53125 4.1640625 C0 2 0 2 0 0 Z " fill="#DE3B34" transform="translate(319,241)"/>
<path d="M0 0 C3.63559661 3.43361902 6.36113346 6.7973607 9 11 C8.67 11.66 8.34 12.32 8 13 C7.67386719 12.50628906 7.34773438 12.01257813 7.01171875 11.50390625 C6.57472656 10.86324219 6.13773437 10.22257813 5.6875 9.5625 C5.25824219 8.92441406 4.82898438 8.28632813 4.38671875 7.62890625 C2.9965948 5.7114316 2.9965948 5.7114316 0 5 C0 3.35 0 1.7 0 0 Z " fill="#D33832" transform="translate(345,132)"/>
<path d="M0 0 C0.33 0 0.66 0 1 0 C0.63076923 6.4 0.63076923 6.4 -2.5625 9.4375 C-3.7690625 10.2109375 -3.7690625 10.2109375 -5 11 C-5.66 10.67 -6.32 10.34 -7 10 C-6.01 9.67 -5.02 9.34 -4 9 C-2.87914688 6.6569191 -2.87914688 6.6569191 -2 4 C-1.34786461 2.65949948 -0.68620031 1.32338632 0 0 Z " fill="#0A2830" transform="translate(404,402)"/>
<path d="M0 0 C1.4800841 0.11362262 2.95910074 0.24122908 4.4375 0.375 C5.26121094 0.44460938 6.08492188 0.51421875 6.93359375 0.5859375 C7.95646484 0.79089844 7.95646484 0.79089844 9 1 C9.33 1.66 9.66 2.32 10 3 C9.01 3 8.02 3 7 3 C6.34 3.66 5.68 4.32 5 5 C5 4.34 5 3.68 5 3 C3.68 3 2.36 3 1 3 C0.67 2.01 0.34 1.02 0 0 Z " fill="#76DBE4" transform="translate(361,330)"/>
<path d="M0 0 C0.66 0.99 1.32 1.98 2 3 C0.35 5.31 -1.3 7.62 -3 10 C-4.43088528 7.13822943 -3.59991697 5.06624227 -3 2 C-2.34 2 -1.68 2 -1 2 C-0.67 1.34 -0.34 0.68 0 0 Z " fill="#DF3A2E" transform="translate(379,153)"/>
<path d="M0 0 C0.99 0 1.98 0 3 0 C3 0.66 3 1.32 3 2 C-0.67452438 4.8394052 -2.26886581 6 -7 6 C-7 5.34 -7 4.68 -7 4 C-5.35 4 -3.7 4 -2 4 C-1.34 2.68 -0.68 1.36 0 0 Z " fill="#4396A6" transform="translate(397,409)"/>
<path d="M0 0 C4.95 0.99 4.95 0.99 10 2 C8.68 2.99 7.36 3.98 6 5 C4.02 4.01 2.04 3.02 0 2 C0 1.34 0 0.68 0 0 Z " fill="#84DADD" transform="translate(411,305)"/>
<path d="M0 0 C2.97 0 5.94 0 9 0 C9 1.32 9 2.64 9 4 C7.68 3.67 6.36 3.34 5 3 C5 2.34 5 1.68 5 1 C3.35 1 1.7 1 0 1 C0 0.67 0 0.34 0 0 Z " fill="#56CDE2" transform="translate(403,278)"/>
<path d="M0 0 C0.66 0.33 1.32 0.66 2 1 C1.3125 3.4375 1.3125 3.4375 0 6 C-2.625 6.8125 -2.625 6.8125 -5 7 C-3.70700306 4.11562221 -2.34058637 2.12780579 0 0 Z " fill="#4EB8BF" transform="translate(379,274)"/>
<path d="M0 0 C2.50298434 2.93828597 3.46930939 5.17902761 4 9 C4.66 9 5.32 9 6 9 C6 9.99 6 10.98 6 12 C3 11 3 11 2.05078125 9.2578125 C1.80714844 8.55398437 1.56351562 7.85015625 1.3125 7.125 C1.06113281 6.42632812 0.80976563 5.72765625 0.55078125 5.0078125 C0 3 0 3 0 0 Z " fill="#D13E36" transform="translate(285,200)"/>
<path d="M0 0 C0.66 0 1.32 0 2 0 C2 0.66 2 1.32 2 2 C2.99 2 3.98 2 5 2 C6.06775224 3.96466413 7.06553465 5.96855359 8 8 C7.67 8.66 7.34 9.32 7 10 C5.83043409 8.52312468 4.66441854 7.04343707 3.5 5.5625 C2.8503125 4.73878906 2.200625 3.91507812 1.53125 3.06640625 C0 1 0 1 0 0 Z " fill="#449FAB" transform="translate(367,400)"/>
<path d="M0 0 C3.82946843 1.45255699 5.12050295 3.42895561 7 7 C6.34 7 5.68 7 5 7 C5 6.34 5 5.68 5 5 C3.68 5 2.36 5 1 5 C0.67 3.35 0.34 1.7 0 0 Z " fill="#73B1B4" transform="translate(378,337)"/>
<path d="M0 0 C0.99 0 1.98 0 3 0 C3 0.66 3 1.32 3 2 C4.65 2 6.3 2 8 2 C8 2.99 8 3.98 8 5 C4.5625 4.1875 4.5625 4.1875 1 3 C0.67 2.01 0.34 1.02 0 0 Z " fill="#4AC7D9" transform="translate(390,312)"/>
<path d="M0 0 C1.32 0 2.64 0 4 0 C4.33 0.99 4.66 1.98 5 3 C3.68 4.32 2.36 5.64 1 7 C0.67 4.69 0.34 2.38 0 0 Z " fill="#E7372E" transform="translate(234,290)"/>
<path d="M0 0 C0.33 0.66 0.66 1.32 1 2 C0.04663979 3.31611677 -0.91285774 4.62778961 -1.875 5.9375 C-2.40867188 6.66839844 -2.94234375 7.39929688 -3.4921875 8.15234375 C-5 10 -5 10 -7 11 C-6.71125 10.443125 -6.4225 9.88625 -6.125 9.3125 C-4.94092436 6.98588247 -4.94092436 6.98588247 -4.0625 4.375 C-3 2 -3 2 0 0 Z " fill="#D93F36" transform="translate(170,282)"/>
<path d="M0 0 C1.32 0 2.64 0 4 0 C3.67 1.32 3.34 2.64 3 4 C0.69 4.33 -1.62 4.66 -4 5 C-3.67 4.34 -3.34 3.68 -3 3 C-2.34 3 -1.68 3 -1 3 C-0.67 2.01 -0.34 1.02 0 0 Z " fill="#3FB6C6" transform="translate(386,279)"/>
<path d="M0 0 C1.65 0 3.3 0 5 0 C5.33 0.99 5.66 1.98 6 3 C7.98 3 9.96 3 12 3 C12 3.33 12 3.66 12 4 C7.01137151 4.29344873 4.03770942 4.05887078 0 1 C0 0.67 0 0.34 0 0 Z " fill="#4095A1" transform="translate(378,412)"/>
<path d="M0 0 C0 0.66 0 1.32 0 2 C-4.29 2 -8.58 2 -13 2 C-13 1.67 -13 1.34 -13 1 C-11.39796533 0.63631108 -9.79325797 0.28438048 -8.1875 -0.0625 C-7.29417969 -0.25972656 -6.40085937 -0.45695312 -5.48046875 -0.66015625 C-3 -1 -3 -1 0 0 Z " fill="#67DFEC" transform="translate(447,331)"/>
<path d="M0 0 C1.65 0 3.3 0 5 0 C5.12375 0.639375 5.2475 1.27875 5.375 1.9375 C5.684375 2.9584375 5.684375 2.9584375 6 4 C6.66 4.33 7.32 4.66 8 5 C7.67 5.66 7.34 6.32 7 7 C5.83040013 6.02433888 4.66438823 5.044375 3.5 4.0625 C2.8503125 3.51722656 2.200625 2.97195313 1.53125 2.41015625 C1.0259375 1.94480469 0.520625 1.47945313 0 1 C0 0.67 0 0.34 0 0 Z " fill="#3A919E" transform="translate(396,322)"/>
<path d="M0 0 C0.66 0.33 1.32 0.66 2 1 C2 1.99 2 2.98 2 4 C-0.31 4.33 -2.62 4.66 -5 5 C-4 2 -4 2 -2.0625 0.75 C-1.381875 0.5025 -0.70125 0.255 0 0 Z " fill="#78D5DE" transform="translate(385,271)"/>
<path d="M0 0 C1.875 0.1875 1.875 0.1875 4 1 C5.25 3.5625 5.25 3.5625 6 6 C5.01 6 4.02 6 3 6 C0 2.66666667 0 2.66666667 0 0 Z " fill="#330202" transform="translate(357,147)"/>
<path d="M0 0 C1.98 0 3.96 0 6 0 C6 0.66 6 1.32 6 2 C7.32 2.66 8.64 3.32 10 4 C6.28111761 3.49287967 3.26545761 2.88391785 0 1 C0 0.67 0 0.34 0 0 Z " fill="#DD3A35" transform="translate(192,299)"/>
<path d="M0 0 C0.33 0.66 0.66 1.32 1 2 C1.5775 1.649375 2.155 1.29875 2.75 0.9375 C5.35801776 -0.14917407 6.39417629 0.06934867 9 1 C5.27034861 3.03435531 3.33094958 4 -1 4 C-0.67 2.68 -0.34 1.36 0 0 Z " fill="#0D292D" transform="translate(366,287)"/>
<path d="M0 0 C2.31 0.33 4.62 0.66 7 1 C5.68 1.33 4.36 1.66 3 2 C3.33 3.32 3.66 4.64 4 6 C2.62437146 4.71034824 1.29233607 3.37310707 0 2 C0 1.34 0 0.68 0 0 Z " fill="#4EA1A8" transform="translate(344,324)"/>
<path d="M0 0 C4.455 2.97 4.455 2.97 9 6 C6 7 6 7 4.17578125 6.22265625 C2.45052083 5.1484375 0.72526042 4.07421875 -1 3 C-0.67 2.01 -0.34 1.02 0 0 Z " fill="#D33B32" transform="translate(197,282)"/>
<path d="M0 0 C2.31 0.66 4.62 1.32 7 2 C6.34 3.32 5.68 4.64 5 6 C4.34 6 3.68 6 3 6 C2.01 4.02 1.02 2.04 0 0 Z " fill="#320301" transform="translate(339,241)"/>
<path d="M0 0 C0.33 0 0.66 0 1 0 C1.25 3.25 1.25 3.25 1 7 C-0.32 8.32 -1.64 9.64 -3 11 C-2.01 7.37 -1.02 3.74 0 0 Z " fill="#D0382B" transform="translate(298,148)"/>
<path d="M0 0 C0.33 0.66 0.66 1.32 1 2 C-0.3125 4.625 -0.3125 4.625 -2 7 C-2.66 7 -3.32 7 -4 7 C-4 6.01 -4 5.02 -4 4 C-3.34 4 -2.68 4 -2 4 C-2 3.01 -2 2.02 -2 1 C-1.34 0.67 -0.68 0.34 0 0 Z " fill="#52BFC5" transform="translate(404,400)"/>
<path d="M0 0 C1.125 1.6875 1.125 1.6875 2 4 C1.125 6.75 1.125 6.75 0 9 C-0.33 9 -0.66 9 -1 9 C-1.125 2.25 -1.125 2.25 0 0 Z " fill="#ED3B30" transform="translate(300,144)"/>
</svg>
